<svg width="50" height="56" viewBox="0 0 50 56" fill="none" xmlns="http://www.w3.org/2000/svg">
<path d="M22.5 46.5C25.001 49 27.5277 51.4623 30.5 55C32.0241 50.3815 32.001 47 31.5 42" stroke="black" stroke-miterlimit="1.0063" stroke-linecap="round" stroke-linejoin="round"/>
<path d="M49 17.5L48.5 18.5" stroke="black" stroke-miterlimit="1.0063" stroke-linecap="round" stroke-linejoin="round"/>
<path d="M47.5 11C45.9568 7.09883 44.9423 4.82327 42.5 0.5C42.7781 1.32269 42.9219 2.27007 43 3" stroke="black" stroke-miterlimit="1.0063" stroke-linecap="round" stroke-linejoin="round"/>
<path d="M26 13C28 17.5 32.5 19.5 34.5 24.5C34.5 22 34 20 33 16C37 16.5 38.5379 18.8609 42 21C41.501 16 40 11 37.5 6.5" stroke="black" stroke-miterlimit="1.0063" stroke-linecap="round" stroke-linejoin="round"/>
<path d="M20 26C21.9571 24.8753 22.4517 24.1209 24 22.5" stroke="black" stroke-miterlimit="1.0063" stroke-linecap="round" stroke-linejoin="round"/>
<path d="M22 15C19 16.5 17.1265 18.5 16.9993 20.5C16.7205 24.8845 21.0126 33 22.0126 34C23.0126 35 25.3819 34.5389 27.5 30" stroke="black" stroke-miterlimit="1.0063" stroke-linecap="round" stroke-linejoin="round"/>
<path d="M7.99964 47C3.99964 40.5 2.5 37 1 31.5C4 32.5 13.1695 38 15.5 40C15.8525 40.3025 16 40 16 40C14.5 34.5 10.4996 27.5 8.49964 21" stroke="black" stroke-miterlimit="1.0063" stroke-linecap="round" stroke-linejoin="round"/>
</svg>
