<svg width="48" height="49" viewBox="0 0 48 49" fill="none" xmlns="http://www.w3.org/2000/svg">
<mask id="mask0_143_308" style="mask-type:alpha" maskUnits="userSpaceOnUse" x="0" y="0" width="48" height="49">
<rect x="0.389648" y="0.935547" width="47.2259" height="47.2259" fill="#D9D9D9"/>
</mask>
<g mask="url(#mask0_143_308)">
<path d="M8.26074 44.2258V34.3871C11.1468 32.4193 13.2621 30.3696 14.6067 28.2379C15.9514 26.1061 16.8696 24.2204 17.3616 22.5806H12.1962V18.6451H16.6237C16.1645 17.9236 15.8038 17.1529 15.5414 16.333C15.279 15.5131 15.1479 14.644 15.1479 13.7257C15.1479 11.266 16.0087 9.1753 17.7305 7.45352C19.4523 5.73174 21.543 4.87085 24.0027 4.87085C26.4624 4.87085 28.5531 5.73174 30.2749 7.45352C31.9967 9.1753 32.8576 11.266 32.8576 13.7257C32.8576 14.644 32.7264 15.5131 32.464 16.333C32.2017 17.1529 31.8409 17.9236 31.3818 18.6451H35.8092V22.5806H30.6439C31.1358 24.2204 32.0541 26.1061 33.3987 28.2379C34.7433 30.3696 36.8587 32.4193 39.7447 34.3871V44.2258H8.26074ZM12.1962 40.2903H35.8092V36.3548C32.792 33.9935 30.6111 31.5584 29.2664 29.0496C27.9218 26.5407 27.0199 24.3843 26.5608 22.5806H21.4447C20.9855 24.3843 20.0836 26.5407 18.739 29.0496C17.3944 31.5584 15.2135 33.9935 12.1962 36.3548V40.2903ZM24.0027 18.6451C25.3801 18.6451 26.5444 18.1695 27.4955 17.2185C28.4466 16.2674 28.9221 15.1031 28.9221 13.7257C28.9221 12.3483 28.4466 11.184 27.4955 10.233C26.5444 9.28188 25.3801 8.80635 24.0027 8.80635C22.6253 8.80635 21.461 9.28188 20.51 10.233C19.5589 11.184 19.0834 12.3483 19.0834 13.7257C19.0834 15.1031 19.5589 16.2674 20.51 17.2185C21.461 18.1695 22.6253 18.6451 24.0027 18.6451Z" fill="#1C1B1F"/>
</g>
</svg>
