<svg width="82" height="43" viewBox="0 0 82 43" fill="none" xmlns="http://www.w3.org/2000/svg">
<path d="M57.9775 33.8606V8.33008H63.2372V29.4102H73.9022V33.8606H57.9775Z" fill="black"/>
<path d="M53.6319 8.33008V33.8606H49.089L38.2661 17.7918H38.0838V33.8606H32.8242V8.33008H37.4401L48.178 24.3864H48.3966V8.33008H53.6319Z" fill="black"/>
<path d="M23.9054 15.672C23.8082 14.6664 23.3911 13.8852 22.6542 13.3284C21.9173 12.7716 20.9172 12.4932 19.6539 12.4932C18.7955 12.4932 18.0708 12.6179 17.4796 12.8672C16.8885 13.1082 16.435 13.4448 16.1192 13.8769C15.8114 14.3091 15.6576 14.7994 15.6576 15.3479C15.6414 15.805 15.7345 16.2039 15.937 16.5447C16.1475 16.8854 16.435 17.1804 16.7994 17.4298C17.1638 17.6708 17.5849 17.8827 18.0627 18.0655C18.5405 18.2401 19.0506 18.3896 19.5932 18.5143L21.8282 19.0628C22.9134 19.3121 23.9094 19.6446 24.8164 20.0601C25.7234 20.4756 26.5089 20.9867 27.1729 21.5934C27.8369 22.2001 28.3511 22.9148 28.7155 23.7376C29.0881 24.5604 29.2784 25.5036 29.2865 26.5674C29.2784 28.1298 28.8897 29.4845 28.1203 30.6313C27.3591 31.7699 26.2578 32.655 24.8164 33.2866C23.383 33.9099 21.6541 34.2216 19.6296 34.2216C17.6213 34.2216 15.8722 33.9058 14.3821 33.2741C12.9002 32.6425 11.7422 31.7076 10.9081 30.4693C10.0821 29.2227 9.64889 27.681 9.6084 25.8444H14.698C14.7547 26.7004 14.9935 27.4151 15.4146 27.9885C15.8438 28.5537 16.4147 28.9817 17.1274 29.2725C17.8481 29.5551 18.6619 29.6964 19.5689 29.6964C20.4597 29.6964 21.233 29.5634 21.889 29.2975C22.553 29.0315 23.0672 28.6617 23.4316 28.188C23.796 27.7143 23.9782 27.1699 23.9782 26.5549C23.9782 25.9815 23.8122 25.4995 23.4802 25.1089C23.1563 24.7183 22.6785 24.3858 22.0469 24.1116C21.4233 23.8373 20.6581 23.588 19.7511 23.3636L17.0423 22.6655C14.945 22.1419 13.2889 21.3233 12.0742 20.2097C10.8595 19.0961 10.2562 17.596 10.2643 15.7094C10.2562 14.1636 10.6571 12.8132 11.4669 11.658C12.2848 10.5028 13.4063 9.60106 14.8316 8.95282C16.2568 8.30459 17.8764 7.98047 19.6904 7.98047C21.5367 7.98047 23.1482 8.30459 24.5249 8.95282C25.9096 9.60106 26.9866 10.5028 27.7559 11.658C28.5252 12.8132 28.922 14.1512 28.9463 15.672H23.9054Z" fill="white"/>
<path fill-rule="evenodd" clip-rule="evenodd" d="M76.7737 3.15814H5.07594C3.97212 3.15814 3.07729 4.07648 3.07729 5.20931V37.4176C3.07729 38.5504 3.97212 39.4687 5.07595 39.4687H76.7737C77.8775 39.4687 78.7723 38.5504 78.7723 37.4176V5.2093C78.7723 4.07648 77.8775 3.15814 76.7737 3.15814ZM5.07594 0C2.27258 0 0 2.33229 0 5.20931V37.4176C0 40.2946 2.27258 42.6269 5.07595 42.6269H76.7737C79.577 42.6269 81.8496 40.2946 81.8496 37.4176V5.2093C81.8496 2.33228 79.577 0 76.7737 0H5.07594Z" fill="black"/>
<path fill-rule="evenodd" clip-rule="evenodd" d="M79.312 33.8609H73.6016V29.4004H79.312V33.8609Z" fill="black"/>
<path fill-rule="evenodd" clip-rule="evenodd" d="M38.07 33.8602V39.7207H32.8037V33.8602H38.07Z" fill="black"/>
<path fill-rule="evenodd" clip-rule="evenodd" d="M11.1037 33.209L2.53809 33.2089L2.53814 26.6973L11.1037 26.6973L11.1037 33.209Z" fill="black"/>
<path d="M16.6795 8.17969H27.7586V14.7229H17.5505C16.7143 14.7229 16.2962 15.1877 16.2962 16.0816V16.8325C16.2962 17.7264 16.6795 18.1197 17.446 18.1197H22.7417C26.9921 18.1197 28.6993 20.2292 28.6993 23.9836V26.5579C28.6993 30.9916 26.5044 33.2084 22.1145 33.2084H10.5128V26.6294H21.2435C22.0797 26.6294 22.4978 26.1646 22.4978 25.2707V24.5199C22.4978 23.6618 22.2191 23.2327 21.3481 23.2327H15.704C11.6974 23.2327 10.0947 20.8728 10.0947 17.8336V14.8302C10.0947 10.3965 12.2896 8.17969 16.6795 8.17969Z" fill="black"/>
</svg>
