<svg width="100" height="52" viewBox="0 0 100 52" fill="none" xmlns="http://www.w3.org/2000/svg">
<path d="M70.8348 41.306V10.1616H77.2607V35.877H90.2908V41.306H70.8348Z" fill="black"/>
<path d="M65.5256 10.1616V41.306H59.9752L46.7523 21.7038H46.5297V41.306H40.1037V10.1616H45.7431L58.8622 29.7485H59.1293V10.1616H65.5256Z" fill="black"/>
<path fill-rule="evenodd" clip-rule="evenodd" d="M93.7984 3.85258H6.20155C4.85295 3.85258 3.75969 4.97285 3.75969 6.35477V45.6452C3.75969 47.0272 4.85295 48.1474 6.20155 48.1474H93.7984C95.147 48.1474 96.2403 47.0272 96.2403 45.6452V6.35477C96.2403 4.97285 95.147 3.85258 93.7984 3.85258ZM6.20155 0C2.77653 0 0 2.84513 0 6.35477V45.6452C0 49.1549 2.77653 52 6.20155 52H93.7984C97.2235 52 100 49.1549 100 45.6452V6.35477C100 2.84513 97.2235 0 93.7984 0H6.20155Z" fill="black"/>
<path fill-rule="evenodd" clip-rule="evenodd" d="M96.8992 41.306H89.9224V35.8647H96.8992V41.306Z" fill="black"/>
<path fill-rule="evenodd" clip-rule="evenodd" d="M46.5116 41.306V48.4551H40.0775V41.306H46.5116Z" fill="black"/>
<path d="M20.3785 9.97934H33.9144V17.9614H21.4426C20.421 17.9614 19.9102 18.5284 19.9102 19.6188V20.5348C19.9102 21.6252 20.3785 22.105 21.3149 22.105H27.7849C32.978 22.105 35.0637 24.6784 35.0637 29.2583V32.3988C35.0637 37.8073 32.3821 40.5116 27.0188 40.5116H12.8443V32.486H25.9546C26.9762 32.486 27.487 31.919 27.487 30.8285V29.9126C27.487 28.8657 27.1464 28.3423 26.0823 28.3423H19.1866C14.2915 28.3423 12.3335 25.4636 12.3335 21.7561V18.0922C12.3335 12.6836 15.0152 9.97934 20.3785 9.97934Z" fill="black"/>
<path d="M3 32.5H13V40.5H3V32.5Z" fill="black"/>
</svg>
