<svg width="472" height="93" viewBox="0 0 472 93" fill="none" xmlns="http://www.w3.org/2000/svg">
<g clip-path="url(#clip0_920_1222)">
<path d="M182 50.1818H184.818V53H182V50.1818ZM182 47.3636H184.818V50.1818H182V47.3636ZM182 44.5455H184.818V47.3636H182V44.5455ZM182 41.7273H184.818V44.5455H182V41.7273ZM184.818 38.9091H187.636V41.7273H184.818V38.9091ZM187.636 41.7273H190.455V44.5455H187.636V41.7273ZM187.636 44.5455H190.455V47.3636H187.636V44.5455ZM187.636 47.3636H190.455V50.1818H187.636V47.3636ZM187.636 50.1818H190.455V53H187.636V50.1818ZM182 38.9091H184.818V41.7273H182V38.9091ZM193.944 41.654C193.944 40.042 194.254 38.523 194.874 37.097C195.494 35.671 196.331 34.431 197.385 33.377C198.439 32.3023 199.679 31.455 201.105 30.835C202.531 30.215 204.05 29.905 205.662 29.905C207.274 29.905 208.793 30.215 210.219 30.835C211.645 31.455 212.885 32.3023 213.939 33.377C215.013 34.431 215.861 35.671 216.481 37.097C217.101 38.523 217.411 40.042 217.411 41.654C217.411 43.266 217.101 44.785 216.481 46.211C215.861 47.637 215.013 48.8873 213.939 49.962C212.885 51.016 211.645 51.853 210.219 52.473C208.793 53.093 207.274 53.403 205.662 53.403C204.05 53.403 202.531 53.093 201.105 52.473C199.679 51.853 198.439 51.016 197.385 49.962C196.331 48.8873 195.494 47.637 194.874 46.211C194.254 44.785 193.944 43.266 193.944 41.654ZM200.082 41.654C200.082 42.4393 200.226 43.1833 200.516 43.886C200.805 44.5887 201.198 45.2087 201.694 45.746C202.21 46.2833 202.81 46.7173 203.492 47.048C204.174 47.358 204.897 47.513 205.662 47.513C206.426 47.513 207.15 47.358 207.832 47.048C208.514 46.7173 209.113 46.2833 209.63 45.746C210.146 45.2087 210.549 44.5887 210.839 43.886C211.128 43.1833 211.273 42.4393 211.273 41.654C211.273 40.8893 211.128 40.1557 210.839 39.453C210.549 38.7297 210.146 38.1097 209.63 37.593C209.113 37.0557 208.514 36.632 207.832 36.322C207.15 35.9913 206.426 35.826 205.662 35.826C204.897 35.826 204.174 35.9913 203.492 36.322C202.81 36.632 202.21 37.0557 201.694 37.593C201.198 38.1097 200.805 38.7297 200.516 39.453C200.226 40.1557 200.082 40.8893 200.082 41.654ZM226.002 53H221.383C221.176 53 221 52.9277 220.856 52.783C220.711 52.6383 220.639 52.4627 220.639 52.256V31.052C220.639 30.8453 220.711 30.6697 220.856 30.525C221 30.3803 221.176 30.308 221.383 30.308H231.024C232.222 30.308 233.328 30.5147 234.341 30.928C235.353 31.3207 236.211 31.8787 236.914 32.602C237.637 33.3253 238.195 34.183 238.588 35.175C239.001 36.167 239.208 37.2623 239.208 38.461C239.208 39.1223 239.125 39.7837 238.96 40.445C238.815 41.0857 238.598 41.6953 238.309 42.274C238.019 42.8527 237.678 43.3797 237.286 43.855C236.893 44.3097 236.449 44.692 235.953 45.002C235.787 45.126 235.674 45.281 235.612 45.467C235.57 45.6323 235.612 45.7977 235.736 45.963C236.521 46.9963 237.348 48.0607 238.216 49.156C239.084 50.2513 239.859 51.2537 240.541 52.163C240.665 52.3283 240.696 52.5143 240.634 52.721C240.572 52.907 240.437 53 240.231 53H234.465C234.258 53 234.031 52.9483 233.783 52.845C233.555 52.721 233.38 52.5763 233.256 52.411C232.594 51.543 231.933 50.6647 231.272 49.776C230.631 48.8873 229.99 47.9883 229.35 47.079C229.226 46.9137 229.05 46.7793 228.823 46.676C228.595 46.552 228.378 46.49 228.172 46.49H227.49C227.283 46.49 227.107 46.5623 226.963 46.707C226.818 46.8517 226.746 47.0273 226.746 47.234V52.256C226.746 52.4627 226.673 52.6383 226.529 52.783C226.384 52.9277 226.208 53 226.002 53ZM227.49 40.786H230.776C231.024 40.786 231.282 40.7447 231.551 40.662C231.819 40.5587 232.067 40.414 232.295 40.228C232.522 40.0213 232.708 39.7733 232.853 39.484C232.997 39.1947 233.07 38.8537 233.07 38.461C233.07 38.2543 233.028 38.0167 232.946 37.748C232.884 37.4587 232.76 37.19 232.574 36.942C232.408 36.6733 232.171 36.4563 231.861 36.291C231.571 36.105 231.21 36.012 230.776 36.012H227.49C227.283 36.012 227.107 36.0843 226.963 36.229C226.818 36.3737 226.746 36.5493 226.746 36.756V40.042C226.746 40.2487 226.818 40.4243 226.963 40.569C227.107 40.7137 227.283 40.786 227.49 40.786ZM268.246 31.083V52.256C268.246 52.4627 268.174 52.6383 268.029 52.783C267.884 52.9277 267.709 53 267.502 53H262.821C262.614 53 262.439 52.9277 262.294 52.783C262.149 52.6383 262.077 52.4627 262.077 52.256V42.274C262.077 42.0673 261.984 41.9537 261.798 41.933C261.612 41.9123 261.457 41.9847 261.333 42.15L256.125 50.551C256.022 50.7163 255.856 50.799 255.629 50.799C255.402 50.799 255.226 50.7163 255.102 50.551L249.894 42.15C249.791 41.9847 249.646 41.9123 249.46 41.933C249.274 41.9537 249.181 42.0673 249.181 42.274V52.256C249.181 52.4627 249.109 52.6383 248.964 52.783C248.819 52.9277 248.644 53 248.437 53H243.756C243.549 53 243.374 52.9277 243.229 52.783C243.084 52.6383 243.012 52.4627 243.012 52.256V31.083C243.012 30.8763 243.084 30.7007 243.229 30.556C243.374 30.4113 243.549 30.339 243.756 30.339H248.096C248.303 30.339 248.52 30.401 248.747 30.525C248.974 30.649 249.14 30.7937 249.243 30.959L255.195 39.701C255.319 39.8663 255.464 39.949 255.629 39.949C255.794 39.949 255.929 39.8663 256.032 39.701L261.984 30.959C262.108 30.7937 262.284 30.649 262.511 30.525C262.738 30.401 262.955 30.339 263.162 30.339H267.502C267.709 30.339 267.884 30.4113 268.029 30.556C268.174 30.7007 268.246 30.8763 268.246 31.083ZM279.434 31.021C279.517 30.835 279.651 30.68 279.837 30.556C280.044 30.4113 280.261 30.339 280.488 30.339H284.828C285.035 30.339 285.231 30.4113 285.417 30.556C285.624 30.68 285.769 30.835 285.851 31.021L294.903 52.101C294.986 52.287 294.965 52.4833 294.841 52.69C294.738 52.8967 294.521 53 294.19 53H288.889C288.662 53 288.445 52.938 288.238 52.814C288.052 52.6693 287.908 52.504 287.804 52.318L286.967 50.458C286.864 50.272 286.709 50.117 286.502 49.993C286.316 49.8483 286.12 49.776 285.913 49.776H279.372C279.145 49.776 278.928 49.8483 278.721 49.993C278.535 50.117 278.401 50.272 278.318 50.458L277.45 52.318C277.368 52.504 277.223 52.6693 277.016 52.814C276.83 52.938 276.634 53 276.427 53H271.095C270.992 53 270.889 52.9793 270.785 52.938C270.661 52.8967 270.568 52.8347 270.506 52.752C270.424 52.6693 270.372 52.566 270.351 52.442C270.331 52.318 270.362 52.1733 270.444 52.008L279.434 31.021ZM281.263 44.506H284.022C284.229 44.506 284.374 44.444 284.456 44.32C284.56 44.1753 284.56 44.01 284.456 43.824C284.25 43.3073 284.002 42.708 283.712 42.026C283.423 41.3233 283.154 40.6723 282.906 40.073C282.824 39.887 282.731 39.794 282.627 39.794C282.524 39.794 282.431 39.887 282.348 40.073L280.798 43.824C280.716 44.01 280.716 44.1753 280.798 44.32C280.881 44.444 281.036 44.506 281.263 44.506ZM313.247 48.04V52.256C313.247 52.4627 313.175 52.6383 313.03 52.783C312.886 52.9277 312.71 53 312.503 53H297.034C296.807 53 296.621 52.9277 296.476 52.783C296.352 52.6383 296.29 52.4627 296.29 52.256V31.052C296.29 30.8453 296.352 30.6697 296.476 30.525C296.621 30.3803 296.807 30.308 297.034 30.308H301.684C301.891 30.308 302.067 30.3803 302.211 30.525C302.356 30.6697 302.428 30.8453 302.428 31.052V46.552C302.428 46.7587 302.49 46.9343 302.614 47.079C302.759 47.2237 302.945 47.296 303.172 47.296H312.503C312.71 47.296 312.886 47.3683 313.03 47.513C313.175 47.6577 313.247 47.8333 313.247 48.04Z" fill="#012E2B"/>
<path d="M3.5 30H170.5V58H324V87.5H468" stroke="black" stroke-width="3" stroke-linecap="round" stroke-linejoin="round"/>
<path d="M333.65 62.3384H339.795V74.6143C339.795 75.5729 339.947 76.2137 340.25 76.5366C340.562 76.8494 341.173 77.0059 342.081 77.0059H342.399V83H340.764C338.524 83 336.778 82.3491 335.527 81.0474C334.276 79.7355 333.65 77.9191 333.65 75.5981V62.3384ZM349.761 83H345.08C344.853 83 344.667 82.9277 344.522 82.783C344.398 82.6383 344.336 82.4627 344.336 82.256V61.083C344.336 60.8763 344.398 60.7007 344.522 60.556C344.667 60.4113 344.853 60.339 345.08 60.339H349.761C349.968 60.339 350.143 60.4113 350.288 60.556C350.433 60.7007 350.505 60.8763 350.505 61.083V82.256C350.505 82.4627 350.433 82.6383 350.288 82.783C350.143 82.9277 349.968 83 349.761 83ZM370.154 71.313C370.485 71.499 370.816 71.7263 371.146 71.995C371.477 72.2637 371.777 72.5943 372.045 72.987C372.335 73.3797 372.562 73.8343 372.727 74.351C372.913 74.8677 373.006 75.4567 373.006 76.118C373.006 77.4613 372.789 78.5773 372.355 79.466C371.942 80.334 371.374 81.0367 370.65 81.574C369.927 82.0907 369.09 82.4627 368.139 82.69C367.209 82.8967 366.228 83 365.194 83H355.367C355.161 83 354.985 82.9277 354.84 82.783C354.696 82.6383 354.623 82.4627 354.623 82.256V61.052C354.623 60.8453 354.696 60.6697 354.84 60.525C354.985 60.3803 355.161 60.308 355.367 60.308H364.729C365.721 60.308 366.672 60.4217 367.581 60.649C368.491 60.8557 369.286 61.207 369.968 61.703C370.671 62.199 371.229 62.85 371.642 63.656C372.076 64.4413 372.293 65.4127 372.293 66.57C372.293 67.5 372.056 68.306 371.58 68.988C371.126 69.67 370.63 70.2073 370.092 70.6C369.72 70.8687 369.741 71.1063 370.154 71.313ZM361.505 68.926H364.388C364.802 68.926 365.132 68.771 365.38 68.461C365.628 68.1303 365.752 67.7687 365.752 67.376C365.752 67.004 365.597 66.6837 365.287 66.415C364.998 66.1463 364.719 66.012 364.45 66.012H361.505C361.299 66.012 361.123 66.0843 360.978 66.229C360.834 66.3737 360.761 66.5493 360.761 66.756V68.182C360.761 68.3887 360.834 68.5643 360.978 68.709C361.123 68.8537 361.299 68.926 361.505 68.926ZM364.76 74.041H361.505C361.299 74.041 361.123 74.1133 360.978 74.258C360.834 74.4027 360.761 74.5783 360.761 74.785V76.552C360.761 76.7587 360.834 76.9343 360.978 77.079C361.123 77.2237 361.299 77.296 361.505 77.296H364.977C365.349 77.296 365.701 77.141 366.031 76.831C366.362 76.521 366.527 76.1593 366.527 75.746C366.527 75.374 366.362 75.002 366.031 74.63C365.721 74.2373 365.298 74.041 364.76 74.041ZM381.754 83H377.135C376.928 83 376.752 82.9277 376.608 82.783C376.463 82.6383 376.391 82.4627 376.391 82.256V61.052C376.391 60.8453 376.463 60.6697 376.608 60.525C376.752 60.3803 376.928 60.308 377.135 60.308H386.776C387.974 60.308 389.08 60.5147 390.093 60.928C391.105 61.3207 391.963 61.8787 392.666 62.602C393.389 63.3253 393.947 64.183 394.34 65.175C394.753 66.167 394.96 67.2623 394.96 68.461C394.96 69.1223 394.877 69.7837 394.712 70.445C394.567 71.0857 394.35 71.6953 394.061 72.274C393.771 72.8527 393.43 73.3797 393.038 73.855C392.645 74.3097 392.201 74.692 391.705 75.002C391.539 75.126 391.426 75.281 391.364 75.467C391.322 75.6323 391.364 75.7977 391.488 75.963C392.273 76.9963 393.1 78.0607 393.968 79.156C394.836 80.2513 395.611 81.2537 396.293 82.163C396.417 82.3283 396.448 82.5143 396.386 82.721C396.324 82.907 396.189 83 395.983 83H390.217C390.01 83 389.783 82.9483 389.535 82.845C389.307 82.721 389.132 82.5763 389.008 82.411C388.346 81.543 387.685 80.6647 387.024 79.776C386.383 78.8873 385.742 77.9883 385.102 77.079C384.978 76.9137 384.802 76.7793 384.575 76.676C384.347 76.552 384.13 76.49 383.924 76.49H383.242C383.035 76.49 382.859 76.5623 382.715 76.707C382.57 76.8517 382.498 77.0273 382.498 77.234V82.256C382.498 82.4627 382.425 82.6383 382.281 82.783C382.136 82.9277 381.96 83 381.754 83ZM383.242 70.786H386.528C386.776 70.786 387.034 70.7447 387.303 70.662C387.571 70.5587 387.819 70.414 388.047 70.228C388.274 70.0213 388.46 69.7733 388.605 69.484C388.749 69.1947 388.822 68.8537 388.822 68.461C388.822 68.2543 388.78 68.0167 388.698 67.748C388.636 67.4587 388.512 67.19 388.326 66.942C388.16 66.6733 387.923 66.4563 387.613 66.291C387.323 66.105 386.962 66.012 386.528 66.012H383.242C383.035 66.012 382.859 66.0843 382.715 66.229C382.57 66.3737 382.498 66.5493 382.498 66.756V70.042C382.498 70.2487 382.57 70.4243 382.715 70.569C382.859 70.7137 383.035 70.786 383.242 70.786ZM405.821 61.021C405.904 60.835 406.038 60.68 406.224 60.556C406.431 60.4113 406.648 60.339 406.875 60.339H411.215C411.422 60.339 411.618 60.4113 411.804 60.556C412.011 60.68 412.156 60.835 412.238 61.021L421.29 82.101C421.373 82.287 421.352 82.4833 421.228 82.69C421.125 82.8967 420.908 83 420.577 83H415.276C415.049 83 414.832 82.938 414.625 82.814C414.439 82.6693 414.295 82.504 414.191 82.318L413.354 80.458C413.251 80.272 413.096 80.117 412.889 79.993C412.703 79.8483 412.507 79.776 412.3 79.776H405.759C405.532 79.776 405.315 79.8483 405.108 79.993C404.922 80.117 404.788 80.272 404.705 80.458L403.837 82.318C403.755 82.504 403.61 82.6693 403.403 82.814C403.217 82.938 403.021 83 402.814 83H397.482C397.379 83 397.276 82.9793 397.172 82.938C397.048 82.8967 396.955 82.8347 396.893 82.752C396.811 82.6693 396.759 82.566 396.738 82.442C396.718 82.318 396.749 82.1733 396.831 82.008L405.821 61.021ZM407.65 74.506H410.409C410.616 74.506 410.761 74.444 410.843 74.32C410.947 74.1753 410.947 74.01 410.843 73.824C410.637 73.3073 410.389 72.708 410.099 72.026C409.81 71.3233 409.541 70.6723 409.293 70.073C409.211 69.887 409.118 69.794 409.014 69.794C408.911 69.794 408.818 69.887 408.735 70.073L407.185 73.824C407.103 74.01 407.103 74.1753 407.185 74.32C407.268 74.444 407.423 74.506 407.65 74.506ZM427.648 83H423.029C422.822 83 422.647 82.9277 422.502 82.783C422.357 82.6383 422.285 82.4627 422.285 82.256V61.052C422.285 60.8453 422.357 60.6697 422.502 60.525C422.647 60.3803 422.822 60.308 423.029 60.308H432.67C433.869 60.308 434.974 60.5147 435.987 60.928C437 61.3207 437.857 61.8787 438.56 62.602C439.283 63.3253 439.841 64.183 440.234 65.175C440.647 66.167 440.854 67.2623 440.854 68.461C440.854 69.1223 440.771 69.7837 440.606 70.445C440.461 71.0857 440.244 71.6953 439.955 72.274C439.666 72.8527 439.325 73.3797 438.932 73.855C438.539 74.3097 438.095 74.692 437.599 75.002C437.434 75.126 437.32 75.281 437.258 75.467C437.217 75.6323 437.258 75.7977 437.382 75.963C438.167 76.9963 438.994 78.0607 439.862 79.156C440.73 80.2513 441.505 81.2537 442.187 82.163C442.311 82.3283 442.342 82.5143 442.28 82.721C442.218 82.907 442.084 83 441.877 83H436.111C435.904 83 435.677 82.9483 435.429 82.845C435.202 82.721 435.026 82.5763 434.902 82.411C434.241 81.543 433.579 80.6647 432.918 79.776C432.277 78.8873 431.637 77.9883 430.996 77.079C430.872 76.9137 430.696 76.7793 430.469 76.676C430.242 76.552 430.025 76.49 429.818 76.49H429.136C428.929 76.49 428.754 76.5623 428.609 76.707C428.464 76.8517 428.392 77.0273 428.392 77.234V82.256C428.392 82.4627 428.32 82.6383 428.175 82.783C428.03 82.9277 427.855 83 427.648 83ZM429.136 70.786H432.422C432.67 70.786 432.928 70.7447 433.197 70.662C433.466 70.5587 433.714 70.414 433.941 70.228C434.168 70.0213 434.354 69.7733 434.499 69.484C434.644 69.1947 434.716 68.8537 434.716 68.461C434.716 68.2543 434.675 68.0167 434.592 67.748C434.53 67.4587 434.406 67.19 434.22 66.942C434.055 66.6733 433.817 66.4563 433.507 66.291C433.218 66.105 432.856 66.012 432.422 66.012H429.136C428.929 66.012 428.754 66.0843 428.609 66.229C428.464 66.3737 428.392 66.5493 428.392 66.756V70.042C428.392 70.2487 428.464 70.4243 428.609 70.569C428.754 70.7137 428.929 70.786 429.136 70.786ZM462.987 61.207L455.237 73.762C455.134 73.948 455.041 74.1753 454.958 74.444C454.875 74.7127 454.834 74.9503 454.834 75.157V82.256C454.834 82.4627 454.762 82.6383 454.617 82.783C454.472 82.9277 454.297 83 454.09 83H449.409C449.202 83 449.027 82.9277 448.882 82.783C448.737 82.6383 448.665 82.4627 448.665 82.256V75.188C448.665 74.9813 448.624 74.7437 448.541 74.475C448.479 74.1857 448.396 73.9583 448.293 73.793C447.053 71.6643 445.782 69.577 444.48 67.531C443.199 65.485 441.917 63.377 440.636 61.207C440.533 61.021 440.512 60.835 440.574 60.649C440.636 60.4423 440.77 60.339 440.977 60.339H446.495C446.702 60.339 446.908 60.401 447.115 60.525C447.342 60.649 447.508 60.804 447.611 60.99L451.424 67.624C451.527 67.7893 451.651 67.872 451.796 67.872C451.941 67.872 452.065 67.7893 452.168 67.624L455.95 60.99C456.053 60.804 456.208 60.649 456.415 60.525C456.642 60.401 456.859 60.339 457.066 60.339H462.646C462.853 60.339 462.997 60.4113 463.08 60.556C463.183 60.7007 463.152 60.9177 462.987 61.207Z" fill="#012E2B"/>
<path d="M18.066 19.699C18.066 23.233 14.377 25.31 10.905 25.31C8.146 25.31 6.007 23.977 4.891 23.977C4.581 23.977 4.364 24.101 4.209 24.349H4.116L5.635 16.723H5.852C5.17 21.063 7.185 25 11.153 25C13.912 25 15.896 23.078 15.896 20.412C15.927 17.622 13.726 16.103 11.99 14.925C8.177 12.321 6.999 10.864 6.968 8.756C6.906 5.191 10.192 3.3 13.509 3.3C17.012 3.3 18.717 5.377 18.872 7.082C18.965 8.074 18.5 8.663 17.88 8.663C17.136 8.663 16.981 7.888 16.857 6.989C16.671 5.718 16.175 3.61 13.416 3.61C10.998 3.61 8.611 5.191 8.611 7.64C8.611 9.5 10.006 11.174 13.695 13.654C15.4 14.801 18.066 16.723 18.066 19.699ZM26.0526 3.021C26.1353 2.835 26.2696 2.68 26.4556 2.556C26.6623 2.41133 26.8793 2.339 27.1066 2.339H31.4466C31.6533 2.339 31.8496 2.41133 32.0356 2.556C32.2423 2.68 32.387 2.835 32.4696 3.021L41.5216 24.101C41.6043 24.287 41.5836 24.4833 41.4596 24.69C41.3563 24.8967 41.1393 25 40.8086 25H35.5076C35.2803 25 35.0633 24.938 34.8566 24.814C34.6706 24.6693 34.526 24.504 34.4226 24.318L33.5856 22.458C33.4823 22.272 33.3273 22.117 33.1206 21.993C32.9346 21.8483 32.7383 21.776 32.5316 21.776H25.9906C25.7633 21.776 25.5463 21.8483 25.3396 21.993C25.1536 22.117 25.0193 22.272 24.9366 22.458L24.0686 24.318C23.986 24.504 23.8413 24.6693 23.6346 24.814C23.4486 24.938 23.2523 25 23.0456 25H17.7136C17.6103 25 17.507 24.9793 17.4036 24.938C17.2796 24.8967 17.1866 24.8347 17.1246 24.752C17.042 24.6693 16.9903 24.566 16.9696 24.442C16.949 24.318 16.98 24.1733 17.0626 24.008L26.0526 3.021ZM27.8816 16.506H30.6406C30.8473 16.506 30.992 16.444 31.0746 16.32C31.178 16.1753 31.178 16.01 31.0746 15.824C30.868 15.3073 30.62 14.708 30.3306 14.026C30.0413 13.3233 29.7726 12.6723 29.5246 12.073C29.442 11.887 29.349 11.794 29.2456 11.794C29.1423 11.794 29.0493 11.887 28.9666 12.073L27.4166 15.824C27.334 16.01 27.334 16.1753 27.4166 16.32C27.4993 16.444 27.6543 16.506 27.8816 16.506ZM56.2146 8.012H51.8746C51.668 8.012 51.4923 8.08433 51.3476 8.229C51.203 8.37367 51.1306 8.54933 51.1306 8.756V24.256C51.1306 24.4627 51.0583 24.6383 50.9136 24.783C50.7896 24.9277 50.614 25 50.3866 25H45.7366C45.53 25 45.3543 24.9277 45.2096 24.783C45.065 24.6383 44.9926 24.4627 44.9926 24.256V8.756C44.9926 8.54933 44.9203 8.37367 44.7756 8.229C44.6516 8.08433 44.476 8.012 44.2486 8.012H39.8466C39.64 8.012 39.4643 7.93967 39.3196 7.795C39.175 7.65033 39.1026 7.47467 39.1026 7.268V3.052C39.1026 2.84533 39.175 2.66967 39.3196 2.525C39.4643 2.38033 39.64 2.308 39.8466 2.308H56.2146C56.442 2.308 56.6176 2.38033 56.7416 2.525C56.8863 2.66967 56.9586 2.84533 56.9586 3.052V7.268C56.9586 7.47467 56.8863 7.65033 56.7416 7.795C56.6176 7.93967 56.442 8.012 56.2146 8.012ZM59.3478 3.083C59.3478 2.87633 59.4202 2.70067 59.5648 2.556C59.7095 2.41133 59.8852 2.339 60.0918 2.339H64.7728C64.9795 2.339 65.1552 2.41133 65.2998 2.556C65.4445 2.70067 65.5168 2.87633 65.5168 3.083V15.638C65.5168 16.444 65.6408 17.1157 65.8888 17.653C66.1575 18.1697 66.4778 18.583 66.8498 18.893C67.2425 19.1823 67.6558 19.389 68.0898 19.513C68.5238 19.637 68.9165 19.699 69.2678 19.699C69.6192 19.699 70.0118 19.637 70.4458 19.513C70.8798 19.389 71.2828 19.1823 71.6548 18.893C72.0268 18.583 72.3368 18.1697 72.5848 17.653C72.8535 17.1157 72.9878 16.444 72.9878 15.638V3.083C72.9878 2.87633 73.0602 2.70067 73.2048 2.556C73.3495 2.41133 73.5252 2.339 73.7318 2.339H78.4128C78.6195 2.339 78.7952 2.41133 78.9398 2.556C79.0845 2.70067 79.1568 2.87633 79.1568 3.083V15.638C79.1568 17.1053 78.9192 18.4383 78.4438 19.637C77.9892 20.8357 77.3278 21.8587 76.4598 22.706C75.5918 23.5533 74.5482 24.2147 73.3288 24.69C72.1095 25.1447 70.7558 25.372 69.2678 25.372C67.7798 25.372 66.4262 25.1447 65.2068 24.69C63.9875 24.2147 62.9438 23.5533 62.0758 22.706C61.2078 21.8587 60.5362 20.8357 60.0608 19.637C59.5855 18.4383 59.3478 17.1053 59.3478 15.638V3.083ZM89.1725 25H84.5535C84.3468 25 84.1712 24.9277 84.0265 24.783C83.8818 24.6383 83.8095 24.4627 83.8095 24.256V3.052C83.8095 2.84533 83.8818 2.66967 84.0265 2.525C84.1712 2.38033 84.3468 2.308 84.5535 2.308H94.1945C95.3932 2.308 96.4988 2.51467 97.5115 2.928C98.5242 3.32067 99.3818 3.87867 100.084 4.602C100.808 5.32533 101.366 6.183 101.758 7.175C102.172 8.167 102.378 9.26233 102.378 10.461C102.378 11.1223 102.296 11.7837 102.13 12.445C101.986 13.0857 101.769 13.6953 101.479 14.274C101.19 14.8527 100.849 15.3797 100.456 15.855C100.064 16.3097 99.6195 16.692 99.1235 17.002C98.9582 17.126 98.8445 17.281 98.7825 17.467C98.7412 17.6323 98.7825 17.7977 98.9065 17.963C99.6918 18.9963 100.518 20.0607 101.386 21.156C102.254 22.2513 103.029 23.2537 103.711 24.163C103.835 24.3283 103.866 24.5143 103.804 24.721C103.742 24.907 103.608 25 103.401 25H97.6355C97.4288 25 97.2015 24.9483 96.9535 24.845C96.7262 24.721 96.5505 24.5763 96.4265 24.411C95.7652 23.543 95.1038 22.6647 94.4425 21.776C93.8018 20.8873 93.1612 19.9883 92.5205 19.079C92.3965 18.9137 92.2208 18.7793 91.9935 18.676C91.7662 18.552 91.5492 18.49 91.3425 18.49H90.6605C90.4538 18.49 90.2782 18.5623 90.1335 18.707C89.9888 18.8517 89.9165 19.0273 89.9165 19.234V24.256C89.9165 24.4627 89.8442 24.6383 89.6995 24.783C89.5548 24.9277 89.3792 25 89.1725 25ZM90.6605 12.786H93.9465C94.1945 12.786 94.4528 12.7447 94.7215 12.662C94.9902 12.5587 95.2382 12.414 95.4655 12.228C95.6928 12.0213 95.8788 11.7733 96.0235 11.484C96.1682 11.1947 96.2405 10.8537 96.2405 10.461C96.2405 10.2543 96.1992 10.0167 96.1165 9.748C96.0545 9.45867 95.9305 9.19 95.7445 8.942C95.5792 8.67333 95.3415 8.45633 95.0315 8.291C94.7422 8.105 94.3805 8.012 93.9465 8.012H90.6605C90.4538 8.012 90.2782 8.08433 90.1335 8.229C89.9888 8.37367 89.9165 8.54933 89.9165 8.756V12.042C89.9165 12.2487 89.9888 12.4243 90.1335 12.569C90.2782 12.7137 90.4538 12.786 90.6605 12.786ZM106.152 24.256V3.052C106.152 2.84533 106.224 2.66967 106.369 2.525C106.514 2.38033 106.689 2.308 106.896 2.308H115.359C118.604 2.308 121.259 3.25867 123.326 5.16C124.442 6.19333 125.289 7.423 125.868 8.849C126.447 10.275 126.736 11.8767 126.736 13.654C126.736 15.4313 126.447 17.0433 125.868 18.49C125.289 19.916 124.442 21.1457 123.326 22.179C122.293 23.109 121.104 23.8117 119.761 24.287C118.438 24.7623 116.971 25 115.359 25H106.896C106.689 25 106.514 24.9277 106.369 24.783C106.224 24.6383 106.152 24.4627 106.152 24.256ZM113.034 19.296H115.359C115.938 19.296 116.537 19.2237 117.157 19.079C117.777 18.9343 118.335 18.6657 118.831 18.273C119.327 17.8597 119.73 17.2913 120.04 16.568C120.371 15.824 120.536 14.863 120.536 13.685C120.536 12.507 120.371 11.5563 120.04 10.833C119.73 10.089 119.317 9.52067 118.8 9.128C118.304 8.71467 117.746 8.43567 117.126 8.291C116.527 8.14633 115.938 8.074 115.359 8.074H113.034C112.827 8.074 112.652 8.14633 112.507 8.291C112.362 8.43567 112.29 8.61133 112.29 8.818V18.552C112.29 18.7587 112.362 18.9343 112.507 19.079C112.652 19.2237 112.827 19.296 113.034 19.296ZM134.734 3.021C134.817 2.835 134.951 2.68 135.137 2.556C135.344 2.41133 135.561 2.339 135.788 2.339H140.128C140.335 2.339 140.531 2.41133 140.717 2.556C140.924 2.68 141.069 2.835 141.151 3.021L150.203 24.101C150.286 24.287 150.265 24.4833 150.141 24.69C150.038 24.8967 149.821 25 149.49 25H144.189C143.962 25 143.745 24.938 143.538 24.814C143.352 24.6693 143.208 24.504 143.104 24.318L142.267 22.458C142.164 22.272 142.009 22.117 141.802 21.993C141.616 21.8483 141.42 21.776 141.213 21.776H134.672C134.445 21.776 134.228 21.8483 134.021 21.993C133.835 22.117 133.701 22.272 133.618 22.458L132.75 24.318C132.668 24.504 132.523 24.6693 132.316 24.814C132.13 24.938 131.934 25 131.727 25H126.395C126.292 25 126.189 24.9793 126.085 24.938C125.961 24.8967 125.868 24.8347 125.806 24.752C125.724 24.6693 125.672 24.566 125.651 24.442C125.631 24.318 125.662 24.1733 125.744 24.008L134.734 3.021ZM136.563 16.506H139.322C139.529 16.506 139.674 16.444 139.756 16.32C139.86 16.1753 139.86 16.01 139.756 15.824C139.55 15.3073 139.302 14.708 139.012 14.026C138.723 13.3233 138.454 12.6723 138.206 12.073C138.124 11.887 138.031 11.794 137.927 11.794C137.824 11.794 137.731 11.887 137.648 12.073L136.098 15.824C136.016 16.01 136.016 16.1753 136.098 16.32C136.181 16.444 136.336 16.506 136.563 16.506ZM168.529 3.207L160.779 15.762C160.676 15.948 160.583 16.1753 160.5 16.444C160.417 16.7127 160.376 16.9503 160.376 17.157V24.256C160.376 24.4627 160.304 24.6383 160.159 24.783C160.014 24.9277 159.839 25 159.632 25H154.951C154.744 25 154.569 24.9277 154.424 24.783C154.279 24.6383 154.207 24.4627 154.207 24.256V17.188C154.207 16.9813 154.166 16.7437 154.083 16.475C154.021 16.1857 153.938 15.9583 153.835 15.793C152.595 13.6643 151.324 11.577 150.022 9.531C148.741 7.485 147.459 5.377 146.178 3.207C146.075 3.021 146.054 2.835 146.116 2.649C146.178 2.44233 146.312 2.339 146.519 2.339H152.037C152.244 2.339 152.45 2.401 152.657 2.525C152.884 2.649 153.05 2.804 153.153 2.99L156.966 9.624C157.069 9.78933 157.193 9.872 157.338 9.872C157.483 9.872 157.607 9.78933 157.71 9.624L161.492 2.99C161.595 2.804 161.75 2.649 161.957 2.525C162.184 2.401 162.401 2.339 162.608 2.339H168.188C168.395 2.339 168.539 2.41133 168.622 2.556C168.725 2.70067 168.694 2.91767 168.529 3.207Z" fill="#012E2B"/>
</g>
<defs>
<clipPath id="clip0_920_1222">
<rect width="472" height="93" fill="white"/>
</clipPath>
</defs>
</svg>
