<svg width="472" height="93" viewBox="0 0 472 93" fill="none" xmlns="http://www.w3.org/2000/svg">
<g clip-path="url(#clip0_920_1222)">
<path d="M182 51.1818H184.818V54H182V51.1818ZM182 48.3636H184.818V51.1818H182V48.3636ZM182 45.5455H184.818V48.3636H182V45.5455ZM182 42.7273H184.818V45.5455H182V42.7273ZM184.818 39.9091H187.636V42.7273H184.818V39.9091ZM187.636 42.7273H190.455V45.5455H187.636V42.7273ZM187.636 45.5455H190.455V48.3636H187.636V45.5455ZM187.636 48.3636H190.455V51.1818H187.636V48.3636ZM187.636 51.1818H190.455V54H187.636V51.1818ZM182 39.9091H184.818V42.7273H182V39.9091ZM193.944 42.654C193.944 41.042 194.254 39.523 194.874 38.097C195.494 36.671 196.331 35.431 197.385 34.377C198.439 33.3023 199.679 32.455 201.105 31.835C202.531 31.215 204.05 30.905 205.662 30.905C207.274 30.905 208.793 31.215 210.219 31.835C211.645 32.455 212.885 33.3023 213.939 34.377C215.013 35.431 215.861 36.671 216.481 38.097C217.101 39.523 217.411 41.042 217.411 42.654C217.411 44.266 217.101 45.785 216.481 47.211C215.861 48.637 215.013 49.8873 213.939 50.962C212.885 52.016 211.645 52.853 210.219 53.473C208.793 54.093 207.274 54.403 205.662 54.403C204.05 54.403 202.531 54.093 201.105 53.473C199.679 52.853 198.439 52.016 197.385 50.962C196.331 49.8873 195.494 48.637 194.874 47.211C194.254 45.785 193.944 44.266 193.944 42.654ZM200.082 42.654C200.082 43.4393 200.226 44.1833 200.516 44.886C200.805 45.5887 201.198 46.2087 201.694 46.746C202.21 47.2833 202.81 47.7173 203.492 48.048C204.174 48.358 204.897 48.513 205.662 48.513C206.426 48.513 207.15 48.358 207.832 48.048C208.514 47.7173 209.113 47.2833 209.63 46.746C210.146 46.2087 210.549 45.5887 210.839 44.886C211.128 44.1833 211.273 43.4393 211.273 42.654C211.273 41.8893 211.128 41.1557 210.839 40.453C210.549 39.7297 210.146 39.1097 209.63 38.593C209.113 38.0557 208.514 37.632 207.832 37.322C207.15 36.9913 206.426 36.826 205.662 36.826C204.897 36.826 204.174 36.9913 203.492 37.322C202.81 37.632 202.21 38.0557 201.694 38.593C201.198 39.1097 200.805 39.7297 200.516 40.453C200.226 41.1557 200.082 41.8893 200.082 42.654ZM226.002 54H221.383C221.176 54 221 53.9277 220.856 53.783C220.711 53.6383 220.639 53.4627 220.639 53.256V32.052C220.639 31.8453 220.711 31.6697 220.856 31.525C221 31.3803 221.176 31.308 221.383 31.308H231.024C232.222 31.308 233.328 31.5147 234.341 31.928C235.353 32.3207 236.211 32.8787 236.914 33.602C237.637 34.3253 238.195 35.183 238.588 36.175C239.001 37.167 239.208 38.2623 239.208 39.461C239.208 40.1223 239.125 40.7837 238.96 41.445C238.815 42.0857 238.598 42.6953 238.309 43.274C238.019 43.8527 237.678 44.3797 237.286 44.855C236.893 45.3097 236.449 45.692 235.953 46.002C235.787 46.126 235.674 46.281 235.612 46.467C235.57 46.6323 235.612 46.7977 235.736 46.963C236.521 47.9963 237.348 49.0607 238.216 50.156C239.084 51.2513 239.859 52.2537 240.541 53.163C240.665 53.3283 240.696 53.5143 240.634 53.721C240.572 53.907 240.437 54 240.231 54H234.465C234.258 54 234.031 53.9483 233.783 53.845C233.555 53.721 233.38 53.5763 233.256 53.411C232.594 52.543 231.933 51.6647 231.272 50.776C230.631 49.8873 229.99 48.9883 229.35 48.079C229.226 47.9137 229.05 47.7793 228.823 47.676C228.595 47.552 228.378 47.49 228.172 47.49H227.49C227.283 47.49 227.107 47.5623 226.963 47.707C226.818 47.8517 226.746 48.0273 226.746 48.234V53.256C226.746 53.4627 226.673 53.6383 226.529 53.783C226.384 53.9277 226.208 54 226.002 54ZM227.49 41.786H230.776C231.024 41.786 231.282 41.7447 231.551 41.662C231.819 41.5587 232.067 41.414 232.295 41.228C232.522 41.0213 232.708 40.7733 232.853 40.484C232.997 40.1947 233.07 39.8537 233.07 39.461C233.07 39.2543 233.028 39.0167 232.946 38.748C232.884 38.4587 232.76 38.19 232.574 37.942C232.408 37.6733 232.171 37.4563 231.861 37.291C231.571 37.105 231.21 37.012 230.776 37.012H227.49C227.283 37.012 227.107 37.0843 226.963 37.229C226.818 37.3737 226.746 37.5493 226.746 37.756V41.042C226.746 41.2487 226.818 41.4243 226.963 41.569C227.107 41.7137 227.283 41.786 227.49 41.786ZM268.246 32.083V53.256C268.246 53.4627 268.174 53.6383 268.029 53.783C267.884 53.9277 267.709 54 267.502 54H262.821C262.614 54 262.439 53.9277 262.294 53.783C262.149 53.6383 262.077 53.4627 262.077 53.256V43.274C262.077 43.0673 261.984 42.9537 261.798 42.933C261.612 42.9123 261.457 42.9847 261.333 43.15L256.125 51.551C256.022 51.7163 255.856 51.799 255.629 51.799C255.402 51.799 255.226 51.7163 255.102 51.551L249.894 43.15C249.791 42.9847 249.646 42.9123 249.46 42.933C249.274 42.9537 249.181 43.0673 249.181 43.274V53.256C249.181 53.4627 249.109 53.6383 248.964 53.783C248.819 53.9277 248.644 54 248.437 54H243.756C243.549 54 243.374 53.9277 243.229 53.783C243.084 53.6383 243.012 53.4627 243.012 53.256V32.083C243.012 31.8763 243.084 31.7007 243.229 31.556C243.374 31.4113 243.549 31.339 243.756 31.339H248.096C248.303 31.339 248.52 31.401 248.747 31.525C248.974 31.649 249.14 31.7937 249.243 31.959L255.195 40.701C255.319 40.8663 255.464 40.949 255.629 40.949C255.794 40.949 255.929 40.8663 256.032 40.701L261.984 31.959C262.108 31.7937 262.284 31.649 262.511 31.525C262.738 31.401 262.955 31.339 263.162 31.339H267.502C267.709 31.339 267.884 31.4113 268.029 31.556C268.174 31.7007 268.246 31.8763 268.246 32.083ZM279.434 32.021C279.517 31.835 279.651 31.68 279.837 31.556C280.044 31.4113 280.261 31.339 280.488 31.339H284.828C285.035 31.339 285.231 31.4113 285.417 31.556C285.624 31.68 285.769 31.835 285.851 32.021L294.903 53.101C294.986 53.287 294.965 53.4833 294.841 53.69C294.738 53.8967 294.521 54 294.19 54H288.889C288.662 54 288.445 53.938 288.238 53.814C288.052 53.6693 287.908 53.504 287.804 53.318L286.967 51.458C286.864 51.272 286.709 51.117 286.502 50.993C286.316 50.8483 286.12 50.776 285.913 50.776H279.372C279.145 50.776 278.928 50.8483 278.721 50.993C278.535 51.117 278.401 51.272 278.318 51.458L277.45 53.318C277.368 53.504 277.223 53.6693 277.016 53.814C276.83 53.938 276.634 54 276.427 54H271.095C270.992 54 270.889 53.9793 270.785 53.938C270.661 53.8967 270.568 53.8347 270.506 53.752C270.424 53.6693 270.372 53.566 270.351 53.442C270.331 53.318 270.362 53.1733 270.444 53.008L279.434 32.021ZM281.263 45.506H284.022C284.229 45.506 284.374 45.444 284.456 45.32C284.56 45.1753 284.56 45.01 284.456 44.824C284.25 44.3073 284.002 43.708 283.712 43.026C283.423 42.3233 283.154 41.6723 282.906 41.073C282.824 40.887 282.731 40.794 282.627 40.794C282.524 40.794 282.431 40.887 282.348 41.073L280.798 44.824C280.716 45.01 280.716 45.1753 280.798 45.32C280.881 45.444 281.036 45.506 281.263 45.506ZM313.247 49.04V53.256C313.247 53.4627 313.175 53.6383 313.03 53.783C312.886 53.9277 312.71 54 312.503 54H297.034C296.807 54 296.621 53.9277 296.476 53.783C296.352 53.6383 296.29 53.4627 296.29 53.256V32.052C296.29 31.8453 296.352 31.6697 296.476 31.525C296.621 31.3803 296.807 31.308 297.034 31.308H301.684C301.891 31.308 302.067 31.3803 302.211 31.525C302.356 31.6697 302.428 31.8453 302.428 32.052V47.552C302.428 47.7587 302.49 47.9343 302.614 48.079C302.759 48.2237 302.945 48.296 303.172 48.296H312.503C312.71 48.296 312.886 48.3683 313.03 48.513C313.175 48.6577 313.247 48.8333 313.247 49.04Z" fill="#012E2B"/>
<path d="M3.5 31H169.5V59H331V87.5H468" stroke="black" stroke-width="3"/>
<path d="M336.65 63.3384H342.795V75.6143C342.795 76.5729 342.947 77.2137 343.25 77.5366C343.562 77.8494 344.173 78.0059 345.081 78.0059H345.399V84H343.764C341.524 84 339.778 83.3491 338.527 82.0474C337.276 80.7355 336.65 78.9191 336.65 76.5981V63.3384ZM352.761 84H348.08C347.853 84 347.667 83.9277 347.522 83.783C347.398 83.6383 347.336 83.4627 347.336 83.256V62.083C347.336 61.8763 347.398 61.7007 347.522 61.556C347.667 61.4113 347.853 61.339 348.08 61.339H352.761C352.968 61.339 353.143 61.4113 353.288 61.556C353.433 61.7007 353.505 61.8763 353.505 62.083V83.256C353.505 83.4627 353.433 83.6383 353.288 83.783C353.143 83.9277 352.968 84 352.761 84ZM373.154 72.313C373.485 72.499 373.816 72.7263 374.146 72.995C374.477 73.2637 374.777 73.5943 375.045 73.987C375.335 74.3797 375.562 74.8343 375.727 75.351C375.913 75.8677 376.006 76.4567 376.006 77.118C376.006 78.4613 375.789 79.5773 375.355 80.466C374.942 81.334 374.374 82.0367 373.65 82.574C372.927 83.0907 372.09 83.4627 371.139 83.69C370.209 83.8967 369.228 84 368.194 84H358.367C358.161 84 357.985 83.9277 357.84 83.783C357.696 83.6383 357.623 83.4627 357.623 83.256V62.052C357.623 61.8453 357.696 61.6697 357.84 61.525C357.985 61.3803 358.161 61.308 358.367 61.308H367.729C368.721 61.308 369.672 61.4217 370.581 61.649C371.491 61.8557 372.286 62.207 372.968 62.703C373.671 63.199 374.229 63.85 374.642 64.656C375.076 65.4413 375.293 66.4127 375.293 67.57C375.293 68.5 375.056 69.306 374.58 69.988C374.126 70.67 373.63 71.2073 373.092 71.6C372.72 71.8687 372.741 72.1063 373.154 72.313ZM364.505 69.926H367.388C367.802 69.926 368.132 69.771 368.38 69.461C368.628 69.1303 368.752 68.7687 368.752 68.376C368.752 68.004 368.597 67.6837 368.287 67.415C367.998 67.1463 367.719 67.012 367.45 67.012H364.505C364.299 67.012 364.123 67.0843 363.978 67.229C363.834 67.3737 363.761 67.5493 363.761 67.756V69.182C363.761 69.3887 363.834 69.5643 363.978 69.709C364.123 69.8537 364.299 69.926 364.505 69.926ZM367.76 75.041H364.505C364.299 75.041 364.123 75.1133 363.978 75.258C363.834 75.4027 363.761 75.5783 363.761 75.785V77.552C363.761 77.7587 363.834 77.9343 363.978 78.079C364.123 78.2237 364.299 78.296 364.505 78.296H367.977C368.349 78.296 368.701 78.141 369.031 77.831C369.362 77.521 369.527 77.1593 369.527 76.746C369.527 76.374 369.362 76.002 369.031 75.63C368.721 75.2373 368.298 75.041 367.76 75.041ZM384.754 84H380.135C379.928 84 379.752 83.9277 379.608 83.783C379.463 83.6383 379.391 83.4627 379.391 83.256V62.052C379.391 61.8453 379.463 61.6697 379.608 61.525C379.752 61.3803 379.928 61.308 380.135 61.308H389.776C390.974 61.308 392.08 61.5147 393.093 61.928C394.105 62.3207 394.963 62.8787 395.666 63.602C396.389 64.3253 396.947 65.183 397.34 66.175C397.753 67.167 397.96 68.2623 397.96 69.461C397.96 70.1223 397.877 70.7837 397.712 71.445C397.567 72.0857 397.35 72.6953 397.061 73.274C396.771 73.8527 396.43 74.3797 396.038 74.855C395.645 75.3097 395.201 75.692 394.705 76.002C394.539 76.126 394.426 76.281 394.364 76.467C394.322 76.6323 394.364 76.7977 394.488 76.963C395.273 77.9963 396.1 79.0607 396.968 80.156C397.836 81.2513 398.611 82.2537 399.293 83.163C399.417 83.3283 399.448 83.5143 399.386 83.721C399.324 83.907 399.189 84 398.983 84H393.217C393.01 84 392.783 83.9483 392.535 83.845C392.307 83.721 392.132 83.5763 392.008 83.411C391.346 82.543 390.685 81.6647 390.024 80.776C389.383 79.8873 388.742 78.9883 388.102 78.079C387.978 77.9137 387.802 77.7793 387.575 77.676C387.347 77.552 387.13 77.49 386.924 77.49H386.242C386.035 77.49 385.859 77.5623 385.715 77.707C385.57 77.8517 385.498 78.0273 385.498 78.234V83.256C385.498 83.4627 385.425 83.6383 385.281 83.783C385.136 83.9277 384.96 84 384.754 84ZM386.242 71.786H389.528C389.776 71.786 390.034 71.7447 390.303 71.662C390.571 71.5587 390.819 71.414 391.047 71.228C391.274 71.0213 391.46 70.7733 391.605 70.484C391.749 70.1947 391.822 69.8537 391.822 69.461C391.822 69.2543 391.78 69.0167 391.698 68.748C391.636 68.4587 391.512 68.19 391.326 67.942C391.16 67.6733 390.923 67.4563 390.613 67.291C390.323 67.105 389.962 67.012 389.528 67.012H386.242C386.035 67.012 385.859 67.0843 385.715 67.229C385.57 67.3737 385.498 67.5493 385.498 67.756V71.042C385.498 71.2487 385.57 71.4243 385.715 71.569C385.859 71.7137 386.035 71.786 386.242 71.786ZM408.821 62.021C408.904 61.835 409.038 61.68 409.224 61.556C409.431 61.4113 409.648 61.339 409.875 61.339H414.215C414.422 61.339 414.618 61.4113 414.804 61.556C415.011 61.68 415.156 61.835 415.238 62.021L424.29 83.101C424.373 83.287 424.352 83.4833 424.228 83.69C424.125 83.8967 423.908 84 423.577 84H418.276C418.049 84 417.832 83.938 417.625 83.814C417.439 83.6693 417.295 83.504 417.191 83.318L416.354 81.458C416.251 81.272 416.096 81.117 415.889 80.993C415.703 80.8483 415.507 80.776 415.3 80.776H408.759C408.532 80.776 408.315 80.8483 408.108 80.993C407.922 81.117 407.788 81.272 407.705 81.458L406.837 83.318C406.755 83.504 406.61 83.6693 406.403 83.814C406.217 83.938 406.021 84 405.814 84H400.482C400.379 84 400.276 83.9793 400.172 83.938C400.048 83.8967 399.955 83.8347 399.893 83.752C399.811 83.6693 399.759 83.566 399.738 83.442C399.718 83.318 399.749 83.1733 399.831 83.008L408.821 62.021ZM410.65 75.506H413.409C413.616 75.506 413.761 75.444 413.843 75.32C413.947 75.1753 413.947 75.01 413.843 74.824C413.637 74.3073 413.389 73.708 413.099 73.026C412.81 72.3233 412.541 71.6723 412.293 71.073C412.211 70.887 412.118 70.794 412.014 70.794C411.911 70.794 411.818 70.887 411.735 71.073L410.185 74.824C410.103 75.01 410.103 75.1753 410.185 75.32C410.268 75.444 410.423 75.506 410.65 75.506ZM430.648 84H426.029C425.822 84 425.647 83.9277 425.502 83.783C425.357 83.6383 425.285 83.4627 425.285 83.256V62.052C425.285 61.8453 425.357 61.6697 425.502 61.525C425.647 61.3803 425.822 61.308 426.029 61.308H435.67C436.869 61.308 437.974 61.5147 438.987 61.928C440 62.3207 440.857 62.8787 441.56 63.602C442.283 64.3253 442.841 65.183 443.234 66.175C443.647 67.167 443.854 68.2623 443.854 69.461C443.854 70.1223 443.771 70.7837 443.606 71.445C443.461 72.0857 443.244 72.6953 442.955 73.274C442.666 73.8527 442.325 74.3797 441.932 74.855C441.539 75.3097 441.095 75.692 440.599 76.002C440.434 76.126 440.32 76.281 440.258 76.467C440.217 76.6323 440.258 76.7977 440.382 76.963C441.167 77.9963 441.994 79.0607 442.862 80.156C443.73 81.2513 444.505 82.2537 445.187 83.163C445.311 83.3283 445.342 83.5143 445.28 83.721C445.218 83.907 445.084 84 444.877 84H439.111C438.904 84 438.677 83.9483 438.429 83.845C438.202 83.721 438.026 83.5763 437.902 83.411C437.241 82.543 436.579 81.6647 435.918 80.776C435.277 79.8873 434.637 78.9883 433.996 78.079C433.872 77.9137 433.696 77.7793 433.469 77.676C433.242 77.552 433.025 77.49 432.818 77.49H432.136C431.929 77.49 431.754 77.5623 431.609 77.707C431.464 77.8517 431.392 78.0273 431.392 78.234V83.256C431.392 83.4627 431.32 83.6383 431.175 83.783C431.03 83.9277 430.855 84 430.648 84ZM432.136 71.786H435.422C435.67 71.786 435.928 71.7447 436.197 71.662C436.466 71.5587 436.714 71.414 436.941 71.228C437.168 71.0213 437.354 70.7733 437.499 70.484C437.644 70.1947 437.716 69.8537 437.716 69.461C437.716 69.2543 437.675 69.0167 437.592 68.748C437.53 68.4587 437.406 68.19 437.22 67.942C437.055 67.6733 436.817 67.4563 436.507 67.291C436.218 67.105 435.856 67.012 435.422 67.012H432.136C431.929 67.012 431.754 67.0843 431.609 67.229C431.464 67.3737 431.392 67.5493 431.392 67.756V71.042C431.392 71.2487 431.464 71.4243 431.609 71.569C431.754 71.7137 431.929 71.786 432.136 71.786ZM465.987 62.207L458.237 74.762C458.134 74.948 458.041 75.1753 457.958 75.444C457.875 75.7127 457.834 75.9503 457.834 76.157V83.256C457.834 83.4627 457.762 83.6383 457.617 83.783C457.472 83.9277 457.297 84 457.09 84H452.409C452.202 84 452.027 83.9277 451.882 83.783C451.737 83.6383 451.665 83.4627 451.665 83.256V76.188C451.665 75.9813 451.624 75.7437 451.541 75.475C451.479 75.1857 451.396 74.9583 451.293 74.793C450.053 72.6643 448.782 70.577 447.48 68.531C446.199 66.485 444.917 64.377 443.636 62.207C443.533 62.021 443.512 61.835 443.574 61.649C443.636 61.4423 443.77 61.339 443.977 61.339H449.495C449.702 61.339 449.908 61.401 450.115 61.525C450.342 61.649 450.508 61.804 450.611 61.99L454.424 68.624C454.527 68.7893 454.651 68.872 454.796 68.872C454.941 68.872 455.065 68.7893 455.168 68.624L458.95 61.99C459.053 61.804 459.208 61.649 459.415 61.525C459.642 61.401 459.859 61.339 460.066 61.339H465.646C465.853 61.339 465.997 61.4113 466.08 61.556C466.183 61.7007 466.152 61.9177 465.987 62.207Z" fill="#012E2B"/>
<path d="M18.066 20.699C18.066 24.233 14.377 26.31 10.905 26.31C8.146 26.31 6.007 24.977 4.891 24.977C4.581 24.977 4.364 25.101 4.209 25.349H4.116L5.635 17.723H5.852C5.17 22.063 7.185 26 11.153 26C13.912 26 15.896 24.078 15.896 21.412C15.927 18.622 13.726 17.103 11.99 15.925C8.177 13.321 6.999 11.864 6.968 9.756C6.906 6.191 10.192 4.3 13.509 4.3C17.012 4.3 18.717 6.377 18.872 8.082C18.965 9.074 18.5 9.663 17.88 9.663C17.136 9.663 16.981 8.888 16.857 7.989C16.671 6.718 16.175 4.61 13.416 4.61C10.998 4.61 8.611 6.191 8.611 8.64C8.611 10.5 10.006 12.174 13.695 14.654C15.4 15.801 18.066 17.723 18.066 20.699ZM26.0526 4.021C26.1353 3.835 26.2696 3.68 26.4556 3.556C26.6623 3.41133 26.8793 3.339 27.1066 3.339H31.4466C31.6533 3.339 31.8496 3.41133 32.0356 3.556C32.2423 3.68 32.387 3.835 32.4696 4.021L41.5216 25.101C41.6043 25.287 41.5836 25.4833 41.4596 25.69C41.3563 25.8967 41.1393 26 40.8086 26H35.5076C35.2803 26 35.0633 25.938 34.8566 25.814C34.6706 25.6693 34.526 25.504 34.4226 25.318L33.5856 23.458C33.4823 23.272 33.3273 23.117 33.1206 22.993C32.9346 22.8483 32.7383 22.776 32.5316 22.776H25.9906C25.7633 22.776 25.5463 22.8483 25.3396 22.993C25.1536 23.117 25.0193 23.272 24.9366 23.458L24.0686 25.318C23.986 25.504 23.8413 25.6693 23.6346 25.814C23.4486 25.938 23.2523 26 23.0456 26H17.7136C17.6103 26 17.507 25.9793 17.4036 25.938C17.2796 25.8967 17.1866 25.8347 17.1246 25.752C17.042 25.6693 16.9903 25.566 16.9696 25.442C16.949 25.318 16.98 25.1733 17.0626 25.008L26.0526 4.021ZM27.8816 17.506H30.6406C30.8473 17.506 30.992 17.444 31.0746 17.32C31.178 17.1753 31.178 17.01 31.0746 16.824C30.868 16.3073 30.62 15.708 30.3306 15.026C30.0413 14.3233 29.7726 13.6723 29.5246 13.073C29.442 12.887 29.349 12.794 29.2456 12.794C29.1423 12.794 29.0493 12.887 28.9666 13.073L27.4166 16.824C27.334 17.01 27.334 17.1753 27.4166 17.32C27.4993 17.444 27.6543 17.506 27.8816 17.506ZM56.2146 9.012H51.8746C51.668 9.012 51.4923 9.08433 51.3476 9.229C51.203 9.37367 51.1306 9.54933 51.1306 9.756V25.256C51.1306 25.4627 51.0583 25.6383 50.9136 25.783C50.7896 25.9277 50.614 26 50.3866 26H45.7366C45.53 26 45.3543 25.9277 45.2096 25.783C45.065 25.6383 44.9926 25.4627 44.9926 25.256V9.756C44.9926 9.54933 44.9203 9.37367 44.7756 9.229C44.6516 9.08433 44.476 9.012 44.2486 9.012H39.8466C39.64 9.012 39.4643 8.93967 39.3196 8.795C39.175 8.65033 39.1026 8.47467 39.1026 8.268V4.052C39.1026 3.84533 39.175 3.66967 39.3196 3.525C39.4643 3.38033 39.64 3.308 39.8466 3.308H56.2146C56.442 3.308 56.6176 3.38033 56.7416 3.525C56.8863 3.66967 56.9586 3.84533 56.9586 4.052V8.268C56.9586 8.47467 56.8863 8.65033 56.7416 8.795C56.6176 8.93967 56.442 9.012 56.2146 9.012ZM59.3478 4.083C59.3478 3.87633 59.4202 3.70067 59.5648 3.556C59.7095 3.41133 59.8852 3.339 60.0918 3.339H64.7728C64.9795 3.339 65.1552 3.41133 65.2998 3.556C65.4445 3.70067 65.5168 3.87633 65.5168 4.083V16.638C65.5168 17.444 65.6408 18.1157 65.8888 18.653C66.1575 19.1697 66.4778 19.583 66.8498 19.893C67.2425 20.1823 67.6558 20.389 68.0898 20.513C68.5238 20.637 68.9165 20.699 69.2678 20.699C69.6192 20.699 70.0118 20.637 70.4458 20.513C70.8798 20.389 71.2828 20.1823 71.6548 19.893C72.0268 19.583 72.3368 19.1697 72.5848 18.653C72.8535 18.1157 72.9878 17.444 72.9878 16.638V4.083C72.9878 3.87633 73.0602 3.70067 73.2048 3.556C73.3495 3.41133 73.5252 3.339 73.7318 3.339H78.4128C78.6195 3.339 78.7952 3.41133 78.9398 3.556C79.0845 3.70067 79.1568 3.87633 79.1568 4.083V16.638C79.1568 18.1053 78.9192 19.4383 78.4438 20.637C77.9892 21.8357 77.3278 22.8587 76.4598 23.706C75.5918 24.5533 74.5482 25.2147 73.3288 25.69C72.1095 26.1447 70.7558 26.372 69.2678 26.372C67.7798 26.372 66.4262 26.1447 65.2068 25.69C63.9875 25.2147 62.9438 24.5533 62.0758 23.706C61.2078 22.8587 60.5362 21.8357 60.0608 20.637C59.5855 19.4383 59.3478 18.1053 59.3478 16.638V4.083ZM89.1725 26H84.5535C84.3468 26 84.1712 25.9277 84.0265 25.783C83.8818 25.6383 83.8095 25.4627 83.8095 25.256V4.052C83.8095 3.84533 83.8818 3.66967 84.0265 3.525C84.1712 3.38033 84.3468 3.308 84.5535 3.308H94.1945C95.3932 3.308 96.4988 3.51467 97.5115 3.928C98.5242 4.32067 99.3818 4.87867 100.084 5.602C100.808 6.32533 101.366 7.183 101.758 8.175C102.172 9.167 102.378 10.2623 102.378 11.461C102.378 12.1223 102.296 12.7837 102.13 13.445C101.986 14.0857 101.769 14.6953 101.479 15.274C101.19 15.8527 100.849 16.3797 100.456 16.855C100.064 17.3097 99.6195 17.692 99.1235 18.002C98.9582 18.126 98.8445 18.281 98.7825 18.467C98.7412 18.6323 98.7825 18.7977 98.9065 18.963C99.6918 19.9963 100.518 21.0607 101.386 22.156C102.254 23.2513 103.029 24.2537 103.711 25.163C103.835 25.3283 103.866 25.5143 103.804 25.721C103.742 25.907 103.608 26 103.401 26H97.6355C97.4288 26 97.2015 25.9483 96.9535 25.845C96.7262 25.721 96.5505 25.5763 96.4265 25.411C95.7652 24.543 95.1038 23.6647 94.4425 22.776C93.8018 21.8873 93.1612 20.9883 92.5205 20.079C92.3965 19.9137 92.2208 19.7793 91.9935 19.676C91.7662 19.552 91.5492 19.49 91.3425 19.49H90.6605C90.4538 19.49 90.2782 19.5623 90.1335 19.707C89.9888 19.8517 89.9165 20.0273 89.9165 20.234V25.256C89.9165 25.4627 89.8442 25.6383 89.6995 25.783C89.5548 25.9277 89.3792 26 89.1725 26ZM90.6605 13.786H93.9465C94.1945 13.786 94.4528 13.7447 94.7215 13.662C94.9902 13.5587 95.2382 13.414 95.4655 13.228C95.6928 13.0213 95.8788 12.7733 96.0235 12.484C96.1682 12.1947 96.2405 11.8537 96.2405 11.461C96.2405 11.2543 96.1992 11.0167 96.1165 10.748C96.0545 10.4587 95.9305 10.19 95.7445 9.942C95.5792 9.67333 95.3415 9.45633 95.0315 9.291C94.7422 9.105 94.3805 9.012 93.9465 9.012H90.6605C90.4538 9.012 90.2782 9.08433 90.1335 9.229C89.9888 9.37367 89.9165 9.54933 89.9165 9.756V13.042C89.9165 13.2487 89.9888 13.4243 90.1335 13.569C90.2782 13.7137 90.4538 13.786 90.6605 13.786ZM106.152 25.256V4.052C106.152 3.84533 106.224 3.66967 106.369 3.525C106.514 3.38033 106.689 3.308 106.896 3.308H115.359C118.604 3.308 121.259 4.25867 123.326 6.16C124.442 7.19333 125.289 8.423 125.868 9.849C126.447 11.275 126.736 12.8767 126.736 14.654C126.736 16.4313 126.447 18.0433 125.868 19.49C125.289 20.916 124.442 22.1457 123.326 23.179C122.293 24.109 121.104 24.8117 119.761 25.287C118.438 25.7623 116.971 26 115.359 26H106.896C106.689 26 106.514 25.9277 106.369 25.783C106.224 25.6383 106.152 25.4627 106.152 25.256ZM113.034 20.296H115.359C115.938 20.296 116.537 20.2237 117.157 20.079C117.777 19.9343 118.335 19.6657 118.831 19.273C119.327 18.8597 119.73 18.2913 120.04 17.568C120.371 16.824 120.536 15.863 120.536 14.685C120.536 13.507 120.371 12.5563 120.04 11.833C119.73 11.089 119.317 10.5207 118.8 10.128C118.304 9.71467 117.746 9.43567 117.126 9.291C116.527 9.14633 115.938 9.074 115.359 9.074H113.034C112.827 9.074 112.652 9.14633 112.507 9.291C112.362 9.43567 112.29 9.61133 112.29 9.818V19.552C112.29 19.7587 112.362 19.9343 112.507 20.079C112.652 20.2237 112.827 20.296 113.034 20.296ZM134.734 4.021C134.817 3.835 134.951 3.68 135.137 3.556C135.344 3.41133 135.561 3.339 135.788 3.339H140.128C140.335 3.339 140.531 3.41133 140.717 3.556C140.924 3.68 141.069 3.835 141.151 4.021L150.203 25.101C150.286 25.287 150.265 25.4833 150.141 25.69C150.038 25.8967 149.821 26 149.49 26H144.189C143.962 26 143.745 25.938 143.538 25.814C143.352 25.6693 143.208 25.504 143.104 25.318L142.267 23.458C142.164 23.272 142.009 23.117 141.802 22.993C141.616 22.8483 141.42 22.776 141.213 22.776H134.672C134.445 22.776 134.228 22.8483 134.021 22.993C133.835 23.117 133.701 23.272 133.618 23.458L132.75 25.318C132.668 25.504 132.523 25.6693 132.316 25.814C132.13 25.938 131.934 26 131.727 26H126.395C126.292 26 126.189 25.9793 126.085 25.938C125.961 25.8967 125.868 25.8347 125.806 25.752C125.724 25.6693 125.672 25.566 125.651 25.442C125.631 25.318 125.662 25.1733 125.744 25.008L134.734 4.021ZM136.563 17.506H139.322C139.529 17.506 139.674 17.444 139.756 17.32C139.86 17.1753 139.86 17.01 139.756 16.824C139.55 16.3073 139.302 15.708 139.012 15.026C138.723 14.3233 138.454 13.6723 138.206 13.073C138.124 12.887 138.031 12.794 137.927 12.794C137.824 12.794 137.731 12.887 137.648 13.073L136.098 16.824C136.016 17.01 136.016 17.1753 136.098 17.32C136.181 17.444 136.336 17.506 136.563 17.506ZM168.529 4.207L160.779 16.762C160.676 16.948 160.583 17.1753 160.5 17.444C160.417 17.7127 160.376 17.9503 160.376 18.157V25.256C160.376 25.4627 160.304 25.6383 160.159 25.783C160.014 25.9277 159.839 26 159.632 26H154.951C154.744 26 154.569 25.9277 154.424 25.783C154.279 25.6383 154.207 25.4627 154.207 25.256V18.188C154.207 17.9813 154.166 17.7437 154.083 17.475C154.021 17.1857 153.938 16.9583 153.835 16.793C152.595 14.6643 151.324 12.577 150.022 10.531C148.741 8.485 147.459 6.377 146.178 4.207C146.075 4.021 146.054 3.835 146.116 3.649C146.178 3.44233 146.312 3.339 146.519 3.339H152.037C152.244 3.339 152.45 3.401 152.657 3.525C152.884 3.649 153.05 3.804 153.153 3.99L156.966 10.624C157.069 10.7893 157.193 10.872 157.338 10.872C157.483 10.872 157.607 10.7893 157.71 10.624L161.492 3.99C161.595 3.804 161.75 3.649 161.957 3.525C162.184 3.401 162.401 3.339 162.608 3.339H168.188C168.395 3.339 168.539 3.41133 168.622 3.556C168.725 3.70067 168.694 3.91767 168.529 4.207Z" fill="#012E2B"/>
</g>
<defs>
<clipPath id="clip0_920_1222">
<rect width="472" height="93" fill="white"/>
</clipPath>
</defs>
</svg>
