<svg width="472" height="48" viewBox="0 0 472 48" fill="none" xmlns="http://www.w3.org/2000/svg">
<path d="M18.066 28.699C18.066 32.233 14.377 34.31 10.905 34.31C8.146 34.31 6.007 32.977 4.891 32.977C4.581 32.977 4.364 33.101 4.209 33.349H4.116L5.635 25.723H5.852C5.17 30.063 7.185 34 11.153 34C13.912 34 15.896 32.078 15.896 29.412C15.927 26.622 13.726 25.103 11.99 23.925C8.177 21.321 6.999 19.864 6.968 17.756C6.906 14.191 10.192 12.3 13.509 12.3C17.012 12.3 18.717 14.377 18.872 16.082C18.965 17.074 18.5 17.663 17.88 17.663C17.136 17.663 16.981 16.888 16.857 15.989C16.671 14.718 16.175 12.61 13.416 12.61C10.998 12.61 8.611 14.191 8.611 16.64C8.611 18.5 10.006 20.174 13.695 22.654C15.4 23.801 18.066 25.723 18.066 28.699ZM26.0526 12.021C26.1353 11.835 26.2696 11.68 26.4556 11.556C26.6623 11.4113 26.8793 11.339 27.1066 11.339H31.4466C31.6533 11.339 31.8496 11.4113 32.0356 11.556C32.2423 11.68 32.387 11.835 32.4696 12.021L41.5216 33.101C41.6043 33.287 41.5836 33.4833 41.4596 33.69C41.3563 33.8967 41.1393 34 40.8086 34H35.5076C35.2803 34 35.0633 33.938 34.8566 33.814C34.6706 33.6693 34.526 33.504 34.4226 33.318L33.5856 31.458C33.4823 31.272 33.3273 31.117 33.1206 30.993C32.9346 30.8483 32.7383 30.776 32.5316 30.776H25.9906C25.7633 30.776 25.5463 30.8483 25.3396 30.993C25.1536 31.117 25.0193 31.272 24.9366 31.458L24.0686 33.318C23.986 33.504 23.8413 33.6693 23.6346 33.814C23.4486 33.938 23.2523 34 23.0456 34H17.7136C17.6103 34 17.507 33.9793 17.4036 33.938C17.2796 33.8967 17.1866 33.8347 17.1246 33.752C17.042 33.6693 16.9903 33.566 16.9696 33.442C16.949 33.318 16.98 33.1733 17.0626 33.008L26.0526 12.021ZM27.8816 25.506H30.6406C30.8473 25.506 30.992 25.444 31.0746 25.32C31.178 25.1753 31.178 25.01 31.0746 24.824C30.868 24.3073 30.62 23.708 30.3306 23.026C30.0413 22.3233 29.7726 21.6723 29.5246 21.073C29.442 20.887 29.349 20.794 29.2456 20.794C29.1423 20.794 29.0493 20.887 28.9666 21.073L27.4166 24.824C27.334 25.01 27.334 25.1753 27.4166 25.32C27.4993 25.444 27.6543 25.506 27.8816 25.506ZM56.2146 17.012H51.8746C51.668 17.012 51.4923 17.0843 51.3476 17.229C51.203 17.3737 51.1306 17.5493 51.1306 17.756V33.256C51.1306 33.4627 51.0583 33.6383 50.9136 33.783C50.7896 33.9277 50.614 34 50.3866 34H45.7366C45.53 34 45.3543 33.9277 45.2096 33.783C45.065 33.6383 44.9926 33.4627 44.9926 33.256V17.756C44.9926 17.5493 44.9203 17.3737 44.7756 17.229C44.6516 17.0843 44.476 17.012 44.2486 17.012H39.8466C39.64 17.012 39.4643 16.9397 39.3196 16.795C39.175 16.6503 39.1026 16.4747 39.1026 16.268V12.052C39.1026 11.8453 39.175 11.6697 39.3196 11.525C39.4643 11.3803 39.64 11.308 39.8466 11.308H56.2146C56.442 11.308 56.6176 11.3803 56.7416 11.525C56.8863 11.6697 56.9586 11.8453 56.9586 12.052V16.268C56.9586 16.4747 56.8863 16.6503 56.7416 16.795C56.6176 16.9397 56.442 17.012 56.2146 17.012ZM59.3478 12.083C59.3478 11.8763 59.4202 11.7007 59.5648 11.556C59.7095 11.4113 59.8852 11.339 60.0918 11.339H64.7728C64.9795 11.339 65.1552 11.4113 65.2998 11.556C65.4445 11.7007 65.5168 11.8763 65.5168 12.083V24.638C65.5168 25.444 65.6408 26.1157 65.8888 26.653C66.1575 27.1697 66.4778 27.583 66.8498 27.893C67.2425 28.1823 67.6558 28.389 68.0898 28.513C68.5238 28.637 68.9165 28.699 69.2678 28.699C69.6192 28.699 70.0118 28.637 70.4458 28.513C70.8798 28.389 71.2828 28.1823 71.6548 27.893C72.0268 27.583 72.3368 27.1697 72.5848 26.653C72.8535 26.1157 72.9878 25.444 72.9878 24.638V12.083C72.9878 11.8763 73.0602 11.7007 73.2048 11.556C73.3495 11.4113 73.5252 11.339 73.7318 11.339H78.4128C78.6195 11.339 78.7952 11.4113 78.9398 11.556C79.0845 11.7007 79.1568 11.8763 79.1568 12.083V24.638C79.1568 26.1053 78.9192 27.4383 78.4438 28.637C77.9892 29.8357 77.3278 30.8587 76.4598 31.706C75.5918 32.5533 74.5482 33.2147 73.3288 33.69C72.1095 34.1447 70.7558 34.372 69.2678 34.372C67.7798 34.372 66.4262 34.1447 65.2068 33.69C63.9875 33.2147 62.9438 32.5533 62.0758 31.706C61.2078 30.8587 60.5362 29.8357 60.0608 28.637C59.5855 27.4383 59.3478 26.1053 59.3478 24.638V12.083ZM89.1725 34H84.5535C84.3468 34 84.1712 33.9277 84.0265 33.783C83.8818 33.6383 83.8095 33.4627 83.8095 33.256V12.052C83.8095 11.8453 83.8818 11.6697 84.0265 11.525C84.1712 11.3803 84.3468 11.308 84.5535 11.308H94.1945C95.3932 11.308 96.4988 11.5147 97.5115 11.928C98.5242 12.3207 99.3818 12.8787 100.084 13.602C100.808 14.3253 101.366 15.183 101.758 16.175C102.172 17.167 102.378 18.2623 102.378 19.461C102.378 20.1223 102.296 20.7837 102.13 21.445C101.986 22.0857 101.769 22.6953 101.479 23.274C101.19 23.8527 100.849 24.3797 100.456 24.855C100.064 25.3097 99.6195 25.692 99.1235 26.002C98.9582 26.126 98.8445 26.281 98.7825 26.467C98.7412 26.6323 98.7825 26.7977 98.9065 26.963C99.6918 27.9963 100.518 29.0607 101.386 30.156C102.254 31.2513 103.029 32.2537 103.711 33.163C103.835 33.3283 103.866 33.5143 103.804 33.721C103.742 33.907 103.608 34 103.401 34H97.6355C97.4288 34 97.2015 33.9483 96.9535 33.845C96.7262 33.721 96.5505 33.5763 96.4265 33.411C95.7652 32.543 95.1038 31.6647 94.4425 30.776C93.8018 29.8873 93.1612 28.9883 92.5205 28.079C92.3965 27.9137 92.2208 27.7793 91.9935 27.676C91.7662 27.552 91.5492 27.49 91.3425 27.49H90.6605C90.4538 27.49 90.2782 27.5623 90.1335 27.707C89.9888 27.8517 89.9165 28.0273 89.9165 28.234V33.256C89.9165 33.4627 89.8442 33.6383 89.6995 33.783C89.5548 33.9277 89.3792 34 89.1725 34ZM90.6605 21.786H93.9465C94.1945 21.786 94.4528 21.7447 94.7215 21.662C94.9902 21.5587 95.2382 21.414 95.4655 21.228C95.6928 21.0213 95.8788 20.7733 96.0235 20.484C96.1682 20.1947 96.2405 19.8537 96.2405 19.461C96.2405 19.2543 96.1992 19.0167 96.1165 18.748C96.0545 18.4587 95.9305 18.19 95.7445 17.942C95.5792 17.6733 95.3415 17.4563 95.0315 17.291C94.7422 17.105 94.3805 17.012 93.9465 17.012H90.6605C90.4538 17.012 90.2782 17.0843 90.1335 17.229C89.9888 17.3737 89.9165 17.5493 89.9165 17.756V21.042C89.9165 21.2487 89.9888 21.4243 90.1335 21.569C90.2782 21.7137 90.4538 21.786 90.6605 21.786ZM106.152 33.256V12.052C106.152 11.8453 106.224 11.6697 106.369 11.525C106.514 11.3803 106.689 11.308 106.896 11.308H115.359C118.604 11.308 121.259 12.2587 123.326 14.16C124.442 15.1933 125.289 16.423 125.868 17.849C126.447 19.275 126.736 20.8767 126.736 22.654C126.736 24.4313 126.447 26.0433 125.868 27.49C125.289 28.916 124.442 30.1457 123.326 31.179C122.293 32.109 121.104 32.8117 119.761 33.287C118.438 33.7623 116.971 34 115.359 34H106.896C106.689 34 106.514 33.9277 106.369 33.783C106.224 33.6383 106.152 33.4627 106.152 33.256ZM113.034 28.296H115.359C115.938 28.296 116.537 28.2237 117.157 28.079C117.777 27.9343 118.335 27.6657 118.831 27.273C119.327 26.8597 119.73 26.2913 120.04 25.568C120.371 24.824 120.536 23.863 120.536 22.685C120.536 21.507 120.371 20.5563 120.04 19.833C119.73 19.089 119.317 18.5207 118.8 18.128C118.304 17.7147 117.746 17.4357 117.126 17.291C116.527 17.1463 115.938 17.074 115.359 17.074H113.034C112.827 17.074 112.652 17.1463 112.507 17.291C112.362 17.4357 112.29 17.6113 112.29 17.818V27.552C112.29 27.7587 112.362 27.9343 112.507 28.079C112.652 28.2237 112.827 28.296 113.034 28.296ZM134.734 12.021C134.817 11.835 134.951 11.68 135.137 11.556C135.344 11.4113 135.561 11.339 135.788 11.339H140.128C140.335 11.339 140.531 11.4113 140.717 11.556C140.924 11.68 141.069 11.835 141.151 12.021L150.203 33.101C150.286 33.287 150.265 33.4833 150.141 33.69C150.038 33.8967 149.821 34 149.49 34H144.189C143.962 34 143.745 33.938 143.538 33.814C143.352 33.6693 143.208 33.504 143.104 33.318L142.267 31.458C142.164 31.272 142.009 31.117 141.802 30.993C141.616 30.8483 141.42 30.776 141.213 30.776H134.672C134.445 30.776 134.228 30.8483 134.021 30.993C133.835 31.117 133.701 31.272 133.618 31.458L132.75 33.318C132.668 33.504 132.523 33.6693 132.316 33.814C132.13 33.938 131.934 34 131.727 34H126.395C126.292 34 126.189 33.9793 126.085 33.938C125.961 33.8967 125.868 33.8347 125.806 33.752C125.724 33.6693 125.672 33.566 125.651 33.442C125.631 33.318 125.662 33.1733 125.744 33.008L134.734 12.021ZM136.563 25.506H139.322C139.529 25.506 139.674 25.444 139.756 25.32C139.86 25.1753 139.86 25.01 139.756 24.824C139.55 24.3073 139.302 23.708 139.012 23.026C138.723 22.3233 138.454 21.6723 138.206 21.073C138.124 20.887 138.031 20.794 137.927 20.794C137.824 20.794 137.731 20.887 137.648 21.073L136.098 24.824C136.016 25.01 136.016 25.1753 136.098 25.32C136.181 25.444 136.336 25.506 136.563 25.506ZM168.529 12.207L160.779 24.762C160.676 24.948 160.583 25.1753 160.5 25.444C160.417 25.7127 160.376 25.9503 160.376 26.157V33.256C160.376 33.4627 160.304 33.6383 160.159 33.783C160.014 33.9277 159.839 34 159.632 34H154.951C154.744 34 154.569 33.9277 154.424 33.783C154.279 33.6383 154.207 33.4627 154.207 33.256V26.188C154.207 25.9813 154.166 25.7437 154.083 25.475C154.021 25.1857 153.938 24.9583 153.835 24.793C152.595 22.6643 151.324 20.577 150.022 18.531C148.741 16.485 147.459 14.377 146.178 12.207C146.075 12.021 146.054 11.835 146.116 11.649C146.178 11.4423 146.312 11.339 146.519 11.339H152.037C152.244 11.339 152.45 11.401 152.657 11.525C152.884 11.649 153.05 11.804 153.153 11.99L156.966 18.624C157.069 18.7893 157.193 18.872 157.338 18.872C157.483 18.872 157.607 18.7893 157.71 18.624L161.492 11.99C161.595 11.804 161.75 11.649 161.957 11.525C162.184 11.401 162.401 11.339 162.608 11.339H168.188C168.395 11.339 168.539 11.4113 168.622 11.556C168.725 11.7007 168.694 11.9177 168.529 12.207ZM180.922 12.362H190.346C190.532 12.362 190.698 12.4343 190.842 12.579C191.008 12.703 191.111 12.858 191.152 13.044C191.524 15.4 192 17.7457 192.578 20.081C192.702 20.4737 192.93 20.67 193.26 20.67C193.426 20.67 193.57 20.6183 193.694 20.515C193.839 20.391 193.911 20.236 193.911 20.05C193.849 17.7147 193.653 15.3897 193.322 13.075C193.281 12.889 193.333 12.7237 193.477 12.579C193.643 12.4343 193.829 12.362 194.035 12.362H203.459C203.645 12.362 203.811 12.4343 203.955 12.579C204.121 12.7237 204.193 12.889 204.172 13.075C203.738 16.4023 203.49 19.7813 203.428 23.212C203.366 26.6427 203.614 30.001 204.172 33.287C204.193 33.473 204.121 33.6383 203.955 33.783C203.811 33.9277 203.645 34 203.459 34H194.035C193.849 34 193.674 33.938 193.508 33.814C193.343 33.6693 193.25 33.504 193.229 33.318C192.878 30.962 192.403 28.6163 191.803 26.281C191.679 25.8677 191.452 25.6713 191.121 25.692C190.935 25.692 190.78 25.7437 190.656 25.847C190.532 25.9503 190.47 26.095 190.47 26.281C190.512 27.459 190.594 28.637 190.718 29.815C190.863 30.9723 190.987 32.1297 191.09 33.287C191.09 33.473 191.008 33.6383 190.842 33.783C190.698 33.9277 190.532 34 190.346 34H180.922C180.736 34 180.561 33.9277 180.395 33.783C180.23 33.6383 180.168 33.473 180.209 33.287C180.643 29.9803 180.809 26.622 180.705 23.212C180.623 19.802 180.457 16.423 180.209 13.075C180.189 12.889 180.251 12.7237 180.395 12.579C180.561 12.4343 180.736 12.362 180.922 12.362ZM205.757 22.654C205.757 21.042 206.067 19.523 206.687 18.097C207.307 16.671 208.144 15.431 209.198 14.377C210.252 13.3023 211.492 12.455 212.918 11.835C214.344 11.215 215.863 10.905 217.475 10.905C219.087 10.905 220.606 11.215 222.032 11.835C223.458 12.455 224.698 13.3023 225.752 14.377C226.827 15.431 227.674 16.671 228.294 18.097C228.914 19.523 229.224 21.042 229.224 22.654C229.224 24.266 228.914 25.785 228.294 27.211C227.674 28.637 226.827 29.8873 225.752 30.962C224.698 32.016 223.458 32.853 222.032 33.473C220.606 34.093 219.087 34.403 217.475 34.403C215.863 34.403 214.344 34.093 212.918 33.473C211.492 32.853 210.252 32.016 209.198 30.962C208.144 29.8873 207.307 28.637 206.687 27.211C206.067 25.785 205.757 24.266 205.757 22.654ZM211.895 22.654C211.895 23.4393 212.04 24.1833 212.329 24.886C212.619 25.5887 213.011 26.2087 213.507 26.746C214.024 27.2833 214.623 27.7173 215.305 28.048C215.987 28.358 216.711 28.513 217.475 28.513C218.24 28.513 218.963 28.358 219.645 28.048C220.327 27.7173 220.927 27.2833 221.443 26.746C221.96 26.2087 222.363 25.5887 222.652 24.886C222.942 24.1833 223.086 23.4393 223.086 22.654C223.086 21.8893 222.942 21.1557 222.652 20.453C222.363 19.7297 221.96 19.1097 221.443 18.593C220.927 18.0557 220.327 17.632 219.645 17.322C218.963 16.9913 218.24 16.826 217.475 16.826C216.711 16.826 215.987 16.9913 215.305 17.322C214.623 17.632 214.024 18.0557 213.507 18.593C213.011 19.1097 212.619 19.7297 212.329 20.453C212.04 21.1557 211.895 21.8893 211.895 22.654ZM237.815 34H233.196C232.989 34 232.814 33.9277 232.669 33.783C232.524 33.6383 232.452 33.4627 232.452 33.256V12.052C232.452 11.8453 232.524 11.6697 232.669 11.525C232.814 11.3803 232.989 11.308 233.196 11.308H242.837C244.036 11.308 245.141 11.5147 246.154 11.928C247.167 12.3207 248.024 12.8787 248.727 13.602C249.45 14.3253 250.008 15.183 250.401 16.175C250.814 17.167 251.021 18.2623 251.021 19.461C251.021 20.1223 250.938 20.7837 250.773 21.445C250.628 22.0857 250.411 22.6953 250.122 23.274C249.833 23.8527 249.492 24.3797 249.099 24.855C248.706 25.3097 248.262 25.692 247.766 26.002C247.601 26.126 247.487 26.281 247.425 26.467C247.384 26.6323 247.425 26.7977 247.549 26.963C248.334 27.9963 249.161 29.0607 250.029 30.156C250.897 31.2513 251.672 32.2537 252.354 33.163C252.478 33.3283 252.509 33.5143 252.447 33.721C252.385 33.907 252.251 34 252.044 34H246.278C246.071 34 245.844 33.9483 245.596 33.845C245.369 33.721 245.193 33.5763 245.069 33.411C244.408 32.543 243.746 31.6647 243.085 30.776C242.444 29.8873 241.804 28.9883 241.163 28.079C241.039 27.9137 240.863 27.7793 240.636 27.676C240.409 27.552 240.192 27.49 239.985 27.49H239.303C239.096 27.49 238.921 27.5623 238.776 27.707C238.631 27.8517 238.559 28.0273 238.559 28.234V33.256C238.559 33.4627 238.487 33.6383 238.342 33.783C238.197 33.9277 238.022 34 237.815 34ZM239.303 21.786H242.589C242.837 21.786 243.095 21.7447 243.364 21.662C243.633 21.5587 243.881 21.414 244.108 21.228C244.335 21.0213 244.521 20.7733 244.666 20.484C244.811 20.1947 244.883 19.8537 244.883 19.461C244.883 19.2543 244.842 19.0167 244.759 18.748C244.697 18.4587 244.573 18.19 244.387 17.942C244.222 17.6733 243.984 17.4563 243.674 17.291C243.385 17.105 243.023 17.012 242.589 17.012H239.303C239.096 17.012 238.921 17.0843 238.776 17.229C238.631 17.3737 238.559 17.5493 238.559 17.756V21.042C238.559 21.2487 238.631 21.4243 238.776 21.569C238.921 21.7137 239.096 21.786 239.303 21.786ZM280.06 12.083V33.256C280.06 33.4627 279.987 33.6383 279.843 33.783C279.698 33.9277 279.522 34 279.316 34H274.635C274.428 34 274.252 33.9277 274.108 33.783C273.963 33.6383 273.891 33.4627 273.891 33.256V23.274C273.891 23.0673 273.798 22.9537 273.612 22.933C273.426 22.9123 273.271 22.9847 273.147 23.15L267.939 31.551C267.835 31.7163 267.67 31.799 267.443 31.799C267.215 31.799 267.04 31.7163 266.916 31.551L261.708 23.15C261.604 22.9847 261.46 22.9123 261.274 22.933C261.088 22.9537 260.995 23.0673 260.995 23.274V33.256C260.995 33.4627 260.922 33.6383 260.778 33.783C260.633 33.9277 260.457 34 260.251 34H255.57C255.363 34 255.187 33.9277 255.043 33.783C254.898 33.6383 254.826 33.4627 254.826 33.256V12.083C254.826 11.8763 254.898 11.7007 255.043 11.556C255.187 11.4113 255.363 11.339 255.57 11.339H259.91C260.116 11.339 260.333 11.401 260.561 11.525C260.788 11.649 260.953 11.7937 261.057 11.959L267.009 20.701C267.133 20.8663 267.277 20.949 267.443 20.949C267.608 20.949 267.742 20.8663 267.846 20.701L273.798 11.959C273.922 11.7937 274.097 11.649 274.325 11.525C274.552 11.401 274.769 11.339 274.976 11.339H279.316C279.522 11.339 279.698 11.4113 279.843 11.556C279.987 11.7007 280.06 11.8763 280.06 12.083ZM291.248 12.021C291.331 11.835 291.465 11.68 291.651 11.556C291.858 11.4113 292.075 11.339 292.302 11.339H296.642C296.849 11.339 297.045 11.4113 297.231 11.556C297.438 11.68 297.582 11.835 297.665 12.021L306.717 33.101C306.8 33.287 306.779 33.4833 306.655 33.69C306.552 33.8967 306.335 34 306.004 34H300.703C300.476 34 300.259 33.938 300.052 33.814C299.866 33.6693 299.721 33.504 299.618 33.318L298.781 31.458C298.678 31.272 298.523 31.117 298.316 30.993C298.13 30.8483 297.934 30.776 297.727 30.776H291.186C290.959 30.776 290.742 30.8483 290.535 30.993C290.349 31.117 290.215 31.272 290.132 31.458L289.264 33.318C289.181 33.504 289.037 33.6693 288.83 33.814C288.644 33.938 288.448 34 288.241 34H282.909C282.806 34 282.702 33.9793 282.599 33.938C282.475 33.8967 282.382 33.8347 282.32 33.752C282.237 33.6693 282.186 33.566 282.165 33.442C282.144 33.318 282.175 33.1733 282.258 33.008L291.248 12.021ZM293.077 25.506H295.836C296.043 25.506 296.187 25.444 296.27 25.32C296.373 25.1753 296.373 25.01 296.27 24.824C296.063 24.3073 295.815 23.708 295.526 23.026C295.237 22.3233 294.968 21.6723 294.72 21.073C294.637 20.887 294.544 20.794 294.441 20.794C294.338 20.794 294.245 20.887 294.162 21.073L292.612 24.824C292.529 25.01 292.529 25.1753 292.612 25.32C292.695 25.444 292.85 25.506 293.077 25.506ZM325.061 29.04V33.256C325.061 33.4627 324.989 33.6383 324.844 33.783C324.699 33.9277 324.524 34 324.317 34H308.848C308.621 34 308.435 33.9277 308.29 33.783C308.166 33.6383 308.104 33.4627 308.104 33.256V12.052C308.104 11.8453 308.166 11.6697 308.29 11.525C308.435 11.3803 308.621 11.308 308.848 11.308H313.498C313.705 11.308 313.88 11.3803 314.025 11.525C314.17 11.6697 314.242 11.8453 314.242 12.052V27.552C314.242 27.7587 314.304 27.9343 314.428 28.079C314.573 28.2237 314.759 28.296 314.986 28.296H324.317C324.524 28.296 324.699 28.3683 324.844 28.513C324.989 28.6577 325.061 28.8333 325.061 29.04ZM337.779 13.3384H343.924V25.6143C343.924 26.5729 344.076 27.2137 344.378 27.5366C344.691 27.8494 345.302 28.0059 346.21 28.0059H346.528V34H344.893C342.653 34 340.907 33.3491 339.656 32.0474C338.404 30.7355 337.779 28.9191 337.779 26.5981V13.3384ZM353.89 34H349.209C348.982 34 348.796 33.9277 348.651 33.783C348.527 33.6383 348.465 33.4627 348.465 33.256V12.083C348.465 11.8763 348.527 11.7007 348.651 11.556C348.796 11.4113 348.982 11.339 349.209 11.339H353.89C354.097 11.339 354.272 11.4113 354.417 11.556C354.562 11.7007 354.634 11.8763 354.634 12.083V33.256C354.634 33.4627 354.562 33.6383 354.417 33.783C354.272 33.9277 354.097 34 353.89 34ZM374.283 22.313C374.614 22.499 374.944 22.7263 375.275 22.995C375.606 23.2637 375.905 23.5943 376.174 23.987C376.463 24.3797 376.691 24.8343 376.856 25.351C377.042 25.8677 377.135 26.4567 377.135 27.118C377.135 28.4613 376.918 29.5773 376.484 30.466C376.071 31.334 375.502 32.0367 374.779 32.574C374.056 33.0907 373.219 33.4627 372.268 33.69C371.338 33.8967 370.356 34 369.323 34H359.496C359.289 34 359.114 33.9277 358.969 33.783C358.824 33.6383 358.752 33.4627 358.752 33.256V12.052C358.752 11.8453 358.824 11.6697 358.969 11.525C359.114 11.3803 359.289 11.308 359.496 11.308H368.858C369.85 11.308 370.801 11.4217 371.71 11.649C372.619 11.8557 373.415 12.207 374.097 12.703C374.8 13.199 375.358 13.85 375.771 14.656C376.205 15.4413 376.422 16.4127 376.422 17.57C376.422 18.5 376.184 19.306 375.709 19.988C375.254 20.67 374.758 21.2073 374.221 21.6C373.849 21.8687 373.87 22.1063 374.283 22.313ZM365.634 19.926H368.517C368.93 19.926 369.261 19.771 369.509 19.461C369.757 19.1303 369.881 18.7687 369.881 18.376C369.881 18.004 369.726 17.6837 369.416 17.415C369.127 17.1463 368.848 17.012 368.579 17.012H365.634C365.427 17.012 365.252 17.0843 365.107 17.229C364.962 17.3737 364.89 17.5493 364.89 17.756V19.182C364.89 19.3887 364.962 19.5643 365.107 19.709C365.252 19.8537 365.427 19.926 365.634 19.926ZM368.889 25.041H365.634C365.427 25.041 365.252 25.1133 365.107 25.258C364.962 25.4027 364.89 25.5783 364.89 25.785V27.552C364.89 27.7587 364.962 27.9343 365.107 28.079C365.252 28.2237 365.427 28.296 365.634 28.296H369.106C369.478 28.296 369.829 28.141 370.16 27.831C370.491 27.521 370.656 27.1593 370.656 26.746C370.656 26.374 370.491 26.002 370.16 25.63C369.85 25.2373 369.426 25.041 368.889 25.041ZM385.882 34H381.263C381.057 34 380.881 33.9277 380.736 33.783C380.592 33.6383 380.519 33.4627 380.519 33.256V12.052C380.519 11.8453 380.592 11.6697 380.736 11.525C380.881 11.3803 381.057 11.308 381.263 11.308H390.904C392.103 11.308 393.209 11.5147 394.221 11.928C395.234 12.3207 396.092 12.8787 396.794 13.602C397.518 14.3253 398.076 15.183 398.468 16.175C398.882 17.167 399.088 18.2623 399.088 19.461C399.088 20.1223 399.006 20.7837 398.84 21.445C398.696 22.0857 398.479 22.6953 398.189 23.274C397.9 23.8527 397.559 24.3797 397.166 24.855C396.774 25.3097 396.329 25.692 395.833 26.002C395.668 26.126 395.554 26.281 395.492 26.467C395.451 26.6323 395.492 26.7977 395.616 26.963C396.402 27.9963 397.228 29.0607 398.096 30.156C398.964 31.2513 399.739 32.2537 400.421 33.163C400.545 33.3283 400.576 33.5143 400.514 33.721C400.452 33.907 400.318 34 400.111 34H394.345C394.139 34 393.911 33.9483 393.663 33.845C393.436 33.721 393.26 33.5763 393.136 33.411C392.475 32.543 391.814 31.6647 391.152 30.776C390.512 29.8873 389.871 28.9883 389.23 28.079C389.106 27.9137 388.931 27.7793 388.703 27.676C388.476 27.552 388.259 27.49 388.052 27.49H387.37C387.164 27.49 386.988 27.5623 386.843 27.707C386.699 27.8517 386.626 28.0273 386.626 28.234V33.256C386.626 33.4627 386.554 33.6383 386.409 33.783C386.265 33.9277 386.089 34 385.882 34ZM387.37 21.786H390.656C390.904 21.786 391.163 21.7447 391.431 21.662C391.7 21.5587 391.948 21.414 392.175 21.228C392.403 21.0213 392.589 20.7733 392.733 20.484C392.878 20.1947 392.95 19.8537 392.95 19.461C392.95 19.2543 392.909 19.0167 392.826 18.748C392.764 18.4587 392.64 18.19 392.454 17.942C392.289 17.6733 392.051 17.4563 391.741 17.291C391.452 17.105 391.09 17.012 390.656 17.012H387.37C387.164 17.012 386.988 17.0843 386.843 17.229C386.699 17.3737 386.626 17.5493 386.626 17.756V21.042C386.626 21.2487 386.699 21.4243 386.843 21.569C386.988 21.7137 387.164 21.786 387.37 21.786ZM409.95 12.021C410.033 11.835 410.167 11.68 410.353 11.556C410.56 11.4113 410.777 11.339 411.004 11.339H415.344C415.551 11.339 415.747 11.4113 415.933 11.556C416.14 11.68 416.284 11.835 416.367 12.021L425.419 33.101C425.502 33.287 425.481 33.4833 425.357 33.69C425.254 33.8967 425.037 34 424.706 34H419.405C419.178 34 418.961 33.938 418.754 33.814C418.568 33.6693 418.423 33.504 418.32 33.318L417.483 31.458C417.38 31.272 417.225 31.117 417.018 30.993C416.832 30.8483 416.636 30.776 416.429 30.776H409.888C409.661 30.776 409.444 30.8483 409.237 30.993C409.051 31.117 408.917 31.272 408.834 31.458L407.966 33.318C407.883 33.504 407.739 33.6693 407.532 33.814C407.346 33.938 407.15 34 406.943 34H401.611C401.508 34 401.404 33.9793 401.301 33.938C401.177 33.8967 401.084 33.8347 401.022 33.752C400.939 33.6693 400.888 33.566 400.867 33.442C400.846 33.318 400.877 33.1733 400.96 33.008L409.95 12.021ZM411.779 25.506H414.538C414.745 25.506 414.889 25.444 414.972 25.32C415.075 25.1753 415.075 25.01 414.972 24.824C414.765 24.3073 414.517 23.708 414.228 23.026C413.939 22.3233 413.67 21.6723 413.422 21.073C413.339 20.887 413.246 20.794 413.143 20.794C413.04 20.794 412.947 20.887 412.864 21.073L411.314 24.824C411.231 25.01 411.231 25.1753 411.314 25.32C411.397 25.444 411.552 25.506 411.779 25.506ZM431.777 34H427.158C426.951 34 426.776 33.9277 426.631 33.783C426.486 33.6383 426.414 33.4627 426.414 33.256V12.052C426.414 11.8453 426.486 11.6697 426.631 11.525C426.776 11.3803 426.951 11.308 427.158 11.308H436.799C437.998 11.308 439.103 11.5147 440.116 11.928C441.129 12.3207 441.986 12.8787 442.689 13.602C443.412 14.3253 443.97 15.183 444.363 16.175C444.776 17.167 444.983 18.2623 444.983 19.461C444.983 20.1223 444.9 20.7837 444.735 21.445C444.59 22.0857 444.373 22.6953 444.084 23.274C443.795 23.8527 443.454 24.3797 443.061 24.855C442.668 25.3097 442.224 25.692 441.728 26.002C441.563 26.126 441.449 26.281 441.387 26.467C441.346 26.6323 441.387 26.7977 441.511 26.963C442.296 27.9963 443.123 29.0607 443.991 30.156C444.859 31.2513 445.634 32.2537 446.316 33.163C446.44 33.3283 446.471 33.5143 446.409 33.721C446.347 33.907 446.213 34 446.006 34H440.24C440.033 34 439.806 33.9483 439.558 33.845C439.331 33.721 439.155 33.5763 439.031 33.411C438.37 32.543 437.708 31.6647 437.047 30.776C436.406 29.8873 435.766 28.9883 435.125 28.079C435.001 27.9137 434.825 27.7793 434.598 27.676C434.371 27.552 434.154 27.49 433.947 27.49H433.265C433.058 27.49 432.883 27.5623 432.738 27.707C432.593 27.8517 432.521 28.0273 432.521 28.234V33.256C432.521 33.4627 432.449 33.6383 432.304 33.783C432.159 33.9277 431.984 34 431.777 34ZM433.265 21.786H436.551C436.799 21.786 437.057 21.7447 437.326 21.662C437.595 21.5587 437.843 21.414 438.07 21.228C438.297 21.0213 438.483 20.7733 438.628 20.484C438.773 20.1947 438.845 19.8537 438.845 19.461C438.845 19.2543 438.804 19.0167 438.721 18.748C438.659 18.4587 438.535 18.19 438.349 17.942C438.184 17.6733 437.946 17.4563 437.636 17.291C437.347 17.105 436.985 17.012 436.551 17.012H433.265C433.058 17.012 432.883 17.0843 432.738 17.229C432.593 17.3737 432.521 17.5493 432.521 17.756V21.042C432.521 21.2487 432.593 21.4243 432.738 21.569C432.883 21.7137 433.058 21.786 433.265 21.786ZM467.116 12.207L459.366 24.762C459.263 24.948 459.17 25.1753 459.087 25.444C459.004 25.7127 458.963 25.9503 458.963 26.157V33.256C458.963 33.4627 458.891 33.6383 458.746 33.783C458.601 33.9277 458.426 34 458.219 34H453.538C453.331 34 453.156 33.9277 453.011 33.783C452.866 33.6383 452.794 33.4627 452.794 33.256V26.188C452.794 25.9813 452.753 25.7437 452.67 25.475C452.608 25.1857 452.525 24.9583 452.422 24.793C451.182 22.6643 449.911 20.577 448.609 18.531C447.328 16.485 446.046 14.377 444.765 12.207C444.662 12.021 444.641 11.835 444.703 11.649C444.765 11.4423 444.899 11.339 445.106 11.339H450.624C450.831 11.339 451.037 11.401 451.244 11.525C451.471 11.649 451.637 11.804 451.74 11.99L455.553 18.624C455.656 18.7893 455.78 18.872 455.925 18.872C456.07 18.872 456.194 18.7893 456.297 18.624L460.079 11.99C460.182 11.804 460.337 11.649 460.544 11.525C460.771 11.401 460.988 11.339 461.195 11.339H466.775C466.982 11.339 467.126 11.4113 467.209 11.556C467.312 11.7007 467.281 11.9177 467.116 12.207Z" fill="#012E2B"/>
</svg>
