<svg width="96" height="96" viewBox="0 0 96 96" fill="none" xmlns="http://www.w3.org/2000/svg">
<path d="M36 55V35C36 34.4477 36.4477 34 37 34H42.3333C42.8856 34 43.3333 34.4477 43.3333 35V40.3333C43.3333 40.8856 43.781 41.3333 44.3333 41.3333H49.6667C50.219 41.3333 50.6667 41.781 50.6667 42.3333V47.6667C50.6667 48.219 51.1144 48.6667 51.6667 48.6667H57C57.5523 48.6667 58 49.1144 58 49.6667V55C58 55.5523 57.5523 56 57 56H50.6667H43.3333H37C36.4477 56 36 55.5523 36 55Z" fill="#012E2B"/>
<path d="M38 56L38 55.5L37 55.5C36.7239 55.5 36.5 55.2761 36.5 55L36.5 53.8613L36 53.8613L36 51.583L36.5 51.583L36.5 49.3057L36 49.3057L36 47.0273L36.5 47.0273L36.5 44.75L36 44.75L36 42.4727L36.5 42.4727L36.5 40.542L36 40.542L36 38.958L36.5 38.958L36.5 37.375L36 37.375L36 35.792L36.5 35.792L36.5 35C36.5 34.7239 36.7239 34.5 37 34.5L38 34.5L38 34L40 34L40 34.5L42 34.5L42 34L44 34L44 34.5L46 34.5L46 34L48 34L48 34.5L50 34.5L50 34L52 34L52 34.5L54 34.5L54 34L56 34L56 34.5L57 34.5C57.2761 34.5 57.5 34.7239 57.5 35L57.5 36L58 36L58 38L57.5 38L57.5 40L58 40L58 42L57.5 42L57.5 44L58 44L58 46L57.5 46L57.5 48L58 48L58 50L57.5 50L57.5 52L58 52L58 54L57.5 54L57.5 55C57.5 55.2761 57.2761 55.5 57 55.5L56 55.5L56 56L54 56L54 55.5L52 55.5L52 56L50 56L50 55.5L48 55.5L48 56L46 56L46 55.5L44 55.5L44 56L42 56L42 55.5L40 55.5L40 56L38 56Z" stroke="#012E2B" stroke-linejoin="round" stroke-dasharray="2 2"/>
<path d="M16.384 47.968C17.536 48.7147 18.6773 49.3013 19.808 49.728C20.9387 50.1547 21.9947 50.368 22.976 50.368C23.9147 50.368 24.6293 50.24 25.12 49.984C25.6107 49.7067 25.856 49.3013 25.856 48.768C25.856 48.4907 25.7493 48.2773 25.536 48.128C25.3227 47.9573 25.0347 47.8187 24.672 47.712C24.3307 47.6053 23.9253 47.52 23.456 47.456C22.9867 47.392 22.5067 47.3067 22.016 47.2C21.5467 47.1147 20.992 47.0187 20.352 46.912C19.7333 46.784 19.0933 46.6133 18.432 46.4C17.7707 46.1653 17.1093 45.8773 16.448 45.536C15.808 45.1947 15.232 44.7573 14.72 44.224C14.208 43.6907 13.792 43.0613 13.472 42.336C13.1733 41.5893 13.024 40.7147 13.024 39.712C13.024 38.24 13.312 37.024 13.888 36.064C14.464 35.104 15.1893 34.3467 16.064 33.792C16.96 33.216 17.952 32.8213 19.04 32.608C20.128 32.3733 21.184 32.256 22.208 32.256C24 32.256 25.6 32.5227 27.008 33.056C28.4373 33.568 29.8027 34.3253 31.104 35.328C31.2747 35.4773 31.3707 35.6587 31.392 35.872C31.4133 36.0853 31.36 36.2773 31.232 36.448L28.736 40C28.608 40.1707 28.4373 40.2773 28.224 40.32C28.0107 40.3627 27.8187 40.32 27.648 40.192C26.56 39.5093 25.5467 39.0293 24.608 38.752C23.6693 38.4533 22.8053 38.304 22.016 38.304C21.7813 38.304 21.504 38.3147 21.184 38.336C20.8853 38.336 20.5973 38.3787 20.32 38.464C20.0427 38.528 19.808 38.6453 19.616 38.816C19.4453 38.9867 19.36 39.2213 19.36 39.52C19.36 39.8187 19.584 40.0853 20.032 40.32C20.48 40.5547 20.992 40.7573 21.568 40.928C22.144 41.0987 22.6987 41.2373 23.232 41.344C23.7653 41.4293 24.1067 41.4827 24.256 41.504C25.024 41.6533 25.8667 41.8773 26.784 42.176C27.7013 42.4533 28.5547 42.88 29.344 43.456C30.1547 44.0107 30.8267 44.7467 31.36 45.664C31.9147 46.56 32.192 47.6907 32.192 49.056C32.192 50.336 31.968 51.4453 31.52 52.384C31.072 53.3013 30.4427 54.0587 29.632 54.656C28.8427 55.2533 27.8827 55.7013 26.752 56C25.6427 56.2773 24.4053 56.416 23.04 56.416C21.9307 56.416 20.896 56.32 19.936 56.128C18.976 55.9573 18.08 55.712 17.248 55.392C16.416 55.072 15.6373 54.6987 14.912 54.272C14.208 53.824 13.5573 53.3547 12.96 52.864C12.7893 52.736 12.6933 52.5653 12.672 52.352C12.6507 52.1173 12.704 51.9147 12.832 51.744L15.296 48.192C15.424 48.0213 15.5947 47.9147 15.808 47.872C16.0213 47.8293 16.2133 47.8613 16.384 47.968ZM79.7625 50.88V55.232C79.7625 55.4453 79.6878 55.6267 79.5385 55.776C79.3892 55.9253 79.2078 56 78.9945 56H63.0265C62.7918 56 62.5998 55.9253 62.4505 55.776C62.3225 55.6267 62.2585 55.4453 62.2585 55.232V33.344C62.2585 33.1307 62.3225 32.9493 62.4505 32.8C62.5998 32.6507 62.7918 32.576 63.0265 32.576H67.8265C68.0398 32.576 68.2212 32.6507 68.3705 32.8C68.5198 32.9493 68.5945 33.1307 68.5945 33.344V49.344C68.5945 49.5573 68.6585 49.7387 68.7865 49.888C68.9358 50.0373 69.1278 50.112 69.3625 50.112H78.9945C79.2078 50.112 79.3892 50.1867 79.5385 50.336C79.6878 50.4853 79.7625 50.6667 79.7625 50.88ZM87.787 52.928C87.787 53.376 87.7017 53.8027 87.531 54.208C87.3603 54.6133 87.1257 54.9653 86.827 55.264C86.5283 55.5627 86.1763 55.7973 85.771 55.968C85.3657 56.1387 84.939 56.224 84.491 56.224C84.043 56.224 83.6163 56.1387 83.211 55.968C82.827 55.7973 82.4857 55.5627 82.187 55.264C81.8883 54.9653 81.6537 54.6133 81.483 54.208C81.3123 53.8027 81.227 53.376 81.227 52.928C81.227 52.48 81.3123 52.064 81.483 51.68C81.6537 51.296 81.8883 50.9547 82.187 50.656C82.4857 50.3573 82.827 50.1227 83.211 49.952C83.6163 49.7813 84.043 49.696 84.491 49.696C84.939 49.696 85.3657 49.7813 85.771 49.952C86.1763 50.1227 86.5283 50.3573 86.827 50.656C87.1257 50.9547 87.3603 51.296 87.531 51.68C87.7017 52.064 87.787 52.48 87.787 52.928Z" fill="#012E2B"/>
<path d="M20.411 60.247C20.519 60.317 20.626 60.372 20.732 60.412C20.838 60.452 20.937 60.472 21.029 60.472C21.117 60.472 21.184 60.46 21.23 60.436C21.276 60.41 21.299 60.372 21.299 60.322C21.299 60.296 21.289 60.276 21.269 60.262C21.249 60.246 21.222 60.233 21.188 60.223C21.156 60.213 21.118 60.205 21.074 60.199C21.03 60.193 20.985 60.185 20.939 60.175C20.895 60.167 20.843 60.158 20.783 60.148C20.725 60.136 20.665 60.12 20.603 60.1C20.541 60.078 20.479 60.051 20.417 60.019C20.357 59.987 20.303 59.946 20.255 59.896C20.207 59.846 20.168 59.787 20.138 59.719C20.11 59.649 20.096 59.567 20.096 59.473C20.096 59.335 20.123 59.221 20.177 59.131C20.231 59.041 20.299 58.97 20.381 58.918C20.465 58.864 20.558 58.827 20.66 58.807C20.762 58.785 20.861 58.774 20.957 58.774C21.125 58.774 21.275 58.799 21.407 58.849C21.541 58.897 21.669 58.968 21.791 59.062C21.807 59.076 21.816 59.093 21.818 59.113C21.82 59.133 21.815 59.151 21.803 59.167L21.569 59.5C21.557 59.516 21.541 59.526 21.521 59.53C21.501 59.534 21.483 59.53 21.467 59.518C21.365 59.454 21.27 59.409 21.182 59.383C21.094 59.355 21.013 59.341 20.939 59.341C20.917 59.341 20.891 59.342 20.861 59.344C20.833 59.344 20.806 59.348 20.78 59.356C20.754 59.362 20.732 59.373 20.714 59.389C20.698 59.405 20.69 59.427 20.69 59.455C20.69 59.483 20.711 59.508 20.753 59.53C20.795 59.552 20.843 59.571 20.897 59.587C20.951 59.603 21.003 59.616 21.053 59.626C21.103 59.634 21.135 59.639 21.149 59.641C21.221 59.655 21.3 59.676 21.386 59.704C21.472 59.73 21.552 59.77 21.626 59.824C21.702 59.876 21.765 59.945 21.815 60.031C21.867 60.115 21.893 60.221 21.893 60.349C21.893 60.469 21.872 60.573 21.83 60.661C21.788 60.747 21.729 60.818 21.653 60.874C21.579 60.93 21.489 60.972 21.383 61C21.279 61.026 21.163 61.039 21.035 61.039C20.931 61.039 20.834 61.03 20.744 61.012C20.654 60.996 20.57 60.973 20.492 60.943C20.414 60.913 20.341 60.878 20.273 60.838C20.207 60.796 20.146 60.752 20.09 60.706C20.074 60.694 20.065 60.678 20.063 60.658C20.061 60.636 20.066 60.617 20.078 60.601L20.309 60.268C20.321 60.252 20.337 60.242 20.357 60.238C20.377 60.234 20.395 60.237 20.411 60.247ZM23.1358 58.873C23.1438 58.855 23.1568 58.84 23.1748 58.828C23.1948 58.814 23.2158 58.807 23.2378 58.807H23.6578C23.6778 58.807 23.6968 58.814 23.7148 58.828C23.7348 58.84 23.7488 58.855 23.7568 58.873L24.6328 60.913C24.6408 60.931 24.6388 60.95 24.6268 60.97C24.6168 60.99 24.5958 61 24.5638 61H24.0508C24.0288 61 24.0078 60.994 23.9878 60.982C23.9698 60.968 23.9558 60.952 23.9458 60.934L23.8648 60.754C23.8548 60.736 23.8398 60.721 23.8198 60.709C23.8018 60.695 23.7828 60.688 23.7628 60.688H23.1298C23.1078 60.688 23.0868 60.695 23.0668 60.709C23.0488 60.721 23.0358 60.736 23.0278 60.754L22.9438 60.934C22.9358 60.952 22.9218 60.968 22.9018 60.982C22.8838 60.994 22.8648 61 22.8448 61H22.3288C22.3188 61 22.3088 60.998 22.2988 60.994C22.2868 60.99 22.2778 60.984 22.2718 60.976C22.2638 60.968 22.2588 60.958 22.2568 60.946C22.2548 60.934 22.2578 60.92 22.2658 60.904L23.1358 58.873ZM23.3128 60.178H23.5798C23.5998 60.178 23.6138 60.172 23.6218 60.16C23.6318 60.146 23.6318 60.13 23.6218 60.112C23.6018 60.062 23.5778 60.004 23.5498 59.938C23.5218 59.87 23.4958 59.807 23.4718 59.749C23.4638 59.731 23.4548 59.722 23.4448 59.722C23.4348 59.722 23.4258 59.731 23.4178 59.749L23.2678 60.112C23.2598 60.13 23.2598 60.146 23.2678 60.16C23.2758 60.172 23.2908 60.178 23.3128 60.178ZM26.4147 59.356H25.9947C25.9747 59.356 25.9577 59.363 25.9437 59.377C25.9297 59.391 25.9227 59.408 25.9227 59.428V60.928C25.9227 60.948 25.9157 60.965 25.9017 60.979C25.8897 60.993 25.8727 61 25.8507 61H25.4007C25.3807 61 25.3637 60.993 25.3497 60.979C25.3357 60.965 25.3287 60.948 25.3287 60.928V59.428C25.3287 59.408 25.3217 59.391 25.3077 59.377C25.2957 59.363 25.2787 59.356 25.2567 59.356H24.8307C24.8107 59.356 24.7937 59.349 24.7797 59.335C24.7657 59.321 24.7587 59.304 24.7587 59.284V58.876C24.7587 58.856 24.7657 58.839 24.7797 58.825C24.7937 58.811 24.8107 58.804 24.8307 58.804H26.4147C26.4367 58.804 26.4537 58.811 26.4657 58.825C26.4797 58.839 26.4867 58.856 26.4867 58.876V59.284C26.4867 59.304 26.4797 59.321 26.4657 59.335C26.4537 59.349 26.4367 59.356 26.4147 59.356ZM27.0779 58.879C27.0779 58.859 27.0849 58.842 27.0989 58.828C27.1129 58.814 27.1299 58.807 27.1499 58.807H27.6029C27.6229 58.807 27.6399 58.814 27.6539 58.828C27.6679 58.842 27.6749 58.859 27.6749 58.879V60.094C27.6749 60.172 27.6869 60.237 27.7109 60.289C27.7369 60.339 27.7679 60.379 27.8039 60.409C27.8419 60.437 27.8819 60.457 27.9239 60.469C27.9659 60.481 28.0039 60.487 28.0379 60.487C28.0719 60.487 28.1099 60.481 28.1519 60.469C28.1939 60.457 28.2329 60.437 28.2689 60.409C28.3049 60.379 28.3349 60.339 28.3589 60.289C28.3849 60.237 28.3979 60.172 28.3979 60.094V58.879C28.3979 58.859 28.4049 58.842 28.4189 58.828C28.4329 58.814 28.4499 58.807 28.4699 58.807H28.9229C28.9429 58.807 28.9599 58.814 28.9739 58.828C28.9879 58.842 28.9949 58.859 28.9949 58.879V60.094C28.9949 60.236 28.9719 60.365 28.9259 60.481C28.8819 60.597 28.8179 60.696 28.7339 60.778C28.6499 60.86 28.5489 60.924 28.4309 60.97C28.3129 61.014 28.1819 61.036 28.0379 61.036C27.8939 61.036 27.7629 61.014 27.6449 60.97C27.5269 60.924 27.4259 60.86 27.3419 60.778C27.2579 60.696 27.1929 60.597 27.1469 60.481C27.1009 60.365 27.0779 60.236 27.0779 60.094V58.879ZM30.3242 61H29.8772C29.8572 61 29.8402 60.993 29.8262 60.979C29.8122 60.965 29.8052 60.948 29.8052 60.928V58.876C29.8052 58.856 29.8122 58.839 29.8262 58.825C29.8402 58.811 29.8572 58.804 29.8772 58.804H30.8102C30.9262 58.804 31.0332 58.824 31.1312 58.864C31.2292 58.902 31.3122 58.956 31.3802 59.026C31.4502 59.096 31.5042 59.179 31.5422 59.275C31.5822 59.371 31.6022 59.477 31.6022 59.593C31.6022 59.657 31.5942 59.721 31.5782 59.785C31.5642 59.847 31.5432 59.906 31.5152 59.962C31.4872 60.018 31.4542 60.069 31.4162 60.115C31.3782 60.159 31.3352 60.196 31.2872 60.226C31.2712 60.238 31.2602 60.253 31.2542 60.271C31.2502 60.287 31.2542 60.303 31.2662 60.319C31.3422 60.419 31.4222 60.522 31.5062 60.628C31.5902 60.734 31.6652 60.831 31.7312 60.919C31.7432 60.935 31.7462 60.953 31.7402 60.973C31.7342 60.991 31.7212 61 31.7012 61H31.1432C31.1232 61 31.1012 60.995 31.0772 60.985C31.0552 60.973 31.0382 60.959 31.0262 60.943C30.9622 60.859 30.8982 60.774 30.8342 60.688C30.7722 60.602 30.7102 60.515 30.6482 60.427C30.6362 60.411 30.6192 60.398 30.5972 60.388C30.5752 60.376 30.5542 60.37 30.5342 60.37H30.4682C30.4482 60.37 30.4312 60.377 30.4172 60.391C30.4032 60.405 30.3962 60.422 30.3962 60.442V60.928C30.3962 60.948 30.3892 60.965 30.3752 60.979C30.3612 60.993 30.3442 61 30.3242 61ZM30.4682 59.818H30.7862C30.8102 59.818 30.8352 59.814 30.8612 59.806C30.8872 59.796 30.9112 59.782 30.9332 59.764C30.9552 59.744 30.9732 59.72 30.9872 59.692C31.0012 59.664 31.0082 59.631 31.0082 59.593C31.0082 59.573 31.0042 59.55 30.9962 59.524C30.9902 59.496 30.9782 59.47 30.9602 59.446C30.9442 59.42 30.9212 59.399 30.8912 59.383C30.8632 59.365 30.8282 59.356 30.7862 59.356H30.4682C30.4482 59.356 30.4312 59.363 30.4172 59.377C30.4032 59.391 30.3962 59.408 30.3962 59.428V59.746C30.3962 59.766 30.4032 59.783 30.4172 59.797C30.4312 59.811 30.4482 59.818 30.4682 59.818ZM32.3274 60.928V58.876C32.3274 58.856 32.3344 58.839 32.3484 58.825C32.3624 58.811 32.3794 58.804 32.3994 58.804H33.2184C33.5324 58.804 33.7894 58.896 33.9894 59.08C34.0974 59.18 34.1794 59.299 34.2354 59.437C34.2914 59.575 34.3194 59.73 34.3194 59.902C34.3194 60.074 34.2914 60.23 34.2354 60.37C34.1794 60.508 34.0974 60.627 33.9894 60.727C33.8894 60.817 33.7744 60.885 33.6444 60.931C33.5164 60.977 33.3744 61 33.2184 61H32.3994C32.3794 61 32.3624 60.993 32.3484 60.979C32.3344 60.965 32.3274 60.948 32.3274 60.928ZM32.9934 60.448H33.2184C33.2744 60.448 33.3324 60.441 33.3924 60.427C33.4524 60.413 33.5064 60.387 33.5544 60.349C33.6024 60.309 33.6414 60.254 33.6714 60.184C33.7034 60.112 33.7194 60.019 33.7194 59.905C33.7194 59.791 33.7034 59.699 33.6714 59.629C33.6414 59.557 33.6014 59.502 33.5514 59.464C33.5034 59.424 33.4494 59.397 33.3894 59.383C33.3314 59.369 33.2744 59.362 33.2184 59.362H32.9934C32.9734 59.362 32.9564 59.369 32.9424 59.383C32.9284 59.397 32.9214 59.414 32.9214 59.434V60.376C32.9214 60.396 32.9284 60.413 32.9424 60.427C32.9564 60.441 32.9734 60.448 32.9934 60.448ZM35.4534 58.873C35.4614 58.855 35.4744 58.84 35.4924 58.828C35.5124 58.814 35.5334 58.807 35.5554 58.807H35.9754C35.9954 58.807 36.0144 58.814 36.0324 58.828C36.0524 58.84 36.0664 58.855 36.0744 58.873L36.9504 60.913C36.9584 60.931 36.9564 60.95 36.9444 60.97C36.9344 60.99 36.9134 61 36.8814 61H36.3684C36.3464 61 36.3254 60.994 36.3054 60.982C36.2874 60.968 36.2734 60.952 36.2634 60.934L36.1824 60.754C36.1724 60.736 36.1574 60.721 36.1374 60.709C36.1194 60.695 36.1004 60.688 36.0804 60.688H35.4474C35.4254 60.688 35.4044 60.695 35.3844 60.709C35.3664 60.721 35.3534 60.736 35.3454 60.754L35.2614 60.934C35.2534 60.952 35.2394 60.968 35.2194 60.982C35.2014 60.994 35.1824 61 35.1624 61H34.6464C34.6364 61 34.6264 60.998 34.6164 60.994C34.6044 60.99 34.5954 60.984 34.5894 60.976C34.5814 60.968 34.5764 60.958 34.5744 60.946C34.5724 60.934 34.5754 60.92 34.5834 60.904L35.4534 58.873ZM35.6304 60.178H35.8974C35.9174 60.178 35.9314 60.172 35.9394 60.16C35.9494 60.146 35.9494 60.13 35.9394 60.112C35.9194 60.062 35.8954 60.004 35.8674 59.938C35.8394 59.87 35.8134 59.807 35.7894 59.749C35.7814 59.731 35.7724 59.722 35.7624 59.722C35.7524 59.722 35.7434 59.731 35.7354 59.749L35.5854 60.112C35.5774 60.13 35.5774 60.146 35.5854 60.16C35.5934 60.172 35.6084 60.178 35.6304 60.178ZM39.0839 58.891L38.3339 60.106C38.3239 60.124 38.3149 60.146 38.3069 60.172C38.2989 60.198 38.2949 60.221 38.2949 60.241V60.928C38.2949 60.948 38.2879 60.965 38.2739 60.979C38.2599 60.993 38.2429 61 38.2229 61H37.7699C37.7499 61 37.7329 60.993 37.7189 60.979C37.7049 60.965 37.6979 60.948 37.6979 60.928V60.244C37.6979 60.224 37.6939 60.201 37.6859 60.175C37.6799 60.147 37.6719 60.125 37.6619 60.109C37.5419 59.903 37.4189 59.701 37.2929 59.503C37.1689 59.305 37.0449 59.101 36.9209 58.891C36.9109 58.873 36.9089 58.855 36.9149 58.837C36.9209 58.817 36.9339 58.807 36.9539 58.807H37.4879C37.5079 58.807 37.5279 58.813 37.5479 58.825C37.5699 58.837 37.5859 58.852 37.5959 58.87L37.9649 59.512C37.9749 59.528 37.9869 59.536 38.0009 59.536C38.0149 59.536 38.0269 59.528 38.0369 59.512L38.4029 58.87C38.4129 58.852 38.4279 58.837 38.4479 58.825C38.4699 58.813 38.4909 58.807 38.5109 58.807H39.0509C39.0709 58.807 39.0849 58.814 39.0929 58.828C39.1029 58.842 39.0999 58.863 39.0839 58.891ZM43.0822 58.876V60.928C43.0822 60.948 43.0752 60.965 43.0612 60.979C43.0472 60.993 43.0302 61 43.0102 61H42.5662C42.5462 61 42.5252 60.994 42.5032 60.982C42.4812 60.97 42.4642 60.956 42.4522 60.94L41.6692 59.839C41.6572 59.823 41.6442 59.817 41.6302 59.821C41.6182 59.823 41.6122 59.834 41.6122 59.854V60.928C41.6122 60.948 41.6052 60.965 41.5912 60.979C41.5772 60.993 41.5602 61 41.5402 61H41.0932C41.0732 61 41.0562 60.993 41.0422 60.979C41.0282 60.965 41.0212 60.948 41.0212 60.928V58.876C41.0212 58.856 41.0282 58.839 41.0422 58.825C41.0562 58.811 41.0732 58.804 41.0932 58.804H41.5432C41.5632 58.804 41.5842 58.81 41.6062 58.822C41.6282 58.832 41.6452 58.845 41.6572 58.861L42.4372 59.962C42.4492 59.978 42.4612 59.985 42.4732 59.983C42.4872 59.981 42.4942 59.97 42.4942 59.95V58.876C42.4942 58.856 42.5012 58.839 42.5152 58.825C42.5292 58.811 42.5462 58.804 42.5662 58.804H43.0102C43.0302 58.804 43.0472 58.811 43.0612 58.825C43.0752 58.839 43.0822 58.856 43.0822 58.876ZM43.7256 59.902C43.7256 59.746 43.7556 59.599 43.8156 59.461C43.8756 59.323 43.9566 59.203 44.0586 59.101C44.1606 58.997 44.2806 58.915 44.4186 58.855C44.5566 58.795 44.7036 58.765 44.8596 58.765C45.0156 58.765 45.1626 58.795 45.3006 58.855C45.4386 58.915 45.5586 58.997 45.6606 59.101C45.7646 59.203 45.8466 59.323 45.9066 59.461C45.9666 59.599 45.9966 59.746 45.9966 59.902C45.9966 60.058 45.9666 60.205 45.9066 60.343C45.8466 60.481 45.7646 60.602 45.6606 60.706C45.5586 60.808 45.4386 60.889 45.3006 60.949C45.1626 61.009 45.0156 61.039 44.8596 61.039C44.7036 61.039 44.5566 61.009 44.4186 60.949C44.2806 60.889 44.1606 60.808 44.0586 60.706C43.9566 60.602 43.8756 60.481 43.8156 60.343C43.7556 60.205 43.7256 60.058 43.7256 59.902ZM44.3196 59.902C44.3196 59.978 44.3336 60.05 44.3616 60.118C44.3896 60.186 44.4276 60.246 44.4756 60.298C44.5256 60.35 44.5836 60.392 44.6496 60.424C44.7156 60.454 44.7856 60.469 44.8596 60.469C44.9336 60.469 45.0036 60.454 45.0696 60.424C45.1356 60.392 45.1936 60.35 45.2436 60.298C45.2936 60.246 45.3326 60.186 45.3606 60.118C45.3886 60.05 45.4026 59.978 45.4026 59.902C45.4026 59.828 45.3886 59.757 45.3606 59.689C45.3326 59.619 45.2936 59.559 45.2436 59.509C45.1936 59.457 45.1356 59.416 45.0696 59.386C45.0036 59.354 44.9336 59.338 44.8596 59.338C44.7856 59.338 44.7156 59.354 44.6496 59.386C44.5836 59.416 44.5256 59.457 44.4756 59.509C44.4276 59.559 44.3896 59.619 44.3616 59.689C44.3336 59.757 44.3196 59.828 44.3196 59.902ZM47.1879 61H46.7409C46.7209 61 46.7039 60.993 46.6899 60.979C46.6759 60.965 46.6689 60.948 46.6689 60.928V58.876C46.6689 58.856 46.6759 58.839 46.6899 58.825C46.7039 58.811 46.7209 58.804 46.7409 58.804H47.6739C47.7899 58.804 47.8969 58.824 47.9949 58.864C48.0929 58.902 48.1759 58.956 48.2439 59.026C48.3139 59.096 48.3679 59.179 48.4059 59.275C48.4459 59.371 48.4659 59.477 48.4659 59.593C48.4659 59.657 48.4579 59.721 48.4419 59.785C48.4279 59.847 48.4069 59.906 48.3789 59.962C48.3509 60.018 48.3179 60.069 48.2799 60.115C48.2419 60.159 48.1989 60.196 48.1509 60.226C48.1349 60.238 48.1239 60.253 48.1179 60.271C48.1139 60.287 48.1179 60.303 48.1299 60.319C48.2059 60.419 48.2859 60.522 48.3699 60.628C48.4539 60.734 48.5289 60.831 48.5949 60.919C48.6069 60.935 48.6099 60.953 48.6039 60.973C48.5979 60.991 48.5849 61 48.5649 61H48.0069C47.9869 61 47.9649 60.995 47.9409 60.985C47.9189 60.973 47.9019 60.959 47.8899 60.943C47.8259 60.859 47.7619 60.774 47.6979 60.688C47.6359 60.602 47.5739 60.515 47.5119 60.427C47.4999 60.411 47.4829 60.398 47.4609 60.388C47.4389 60.376 47.4179 60.37 47.3979 60.37H47.3319C47.3119 60.37 47.2949 60.377 47.2809 60.391C47.2669 60.405 47.2599 60.422 47.2599 60.442V60.928C47.2599 60.948 47.2529 60.965 47.2389 60.979C47.2249 60.993 47.2079 61 47.1879 61ZM47.3319 59.818H47.6499C47.6739 59.818 47.6989 59.814 47.7249 59.806C47.7509 59.796 47.7749 59.782 47.7969 59.764C47.8189 59.744 47.8369 59.72 47.8509 59.692C47.8649 59.664 47.8719 59.631 47.8719 59.593C47.8719 59.573 47.8679 59.55 47.8599 59.524C47.8539 59.496 47.8419 59.47 47.8239 59.446C47.8079 59.42 47.7849 59.399 47.7549 59.383C47.7269 59.365 47.6919 59.356 47.6499 59.356H47.3319C47.3119 59.356 47.2949 59.363 47.2809 59.377C47.2669 59.391 47.2599 59.408 47.2599 59.428V59.746C47.2599 59.766 47.2669 59.783 47.2809 59.797C47.2949 59.811 47.3119 59.818 47.3319 59.818ZM51.6361 58.879V60.928C51.6361 60.948 51.6291 60.965 51.6151 60.979C51.6011 60.993 51.5841 61 51.5641 61H51.1111C51.0911 61 51.0741 60.993 51.0601 60.979C51.0461 60.965 51.0391 60.948 51.0391 60.928V59.962C51.0391 59.942 51.0301 59.931 51.0121 59.929C50.9941 59.927 50.9791 59.934 50.9671 59.95L50.4631 60.763C50.4531 60.779 50.4371 60.787 50.4151 60.787C50.3931 60.787 50.3761 60.779 50.3641 60.763L49.8601 59.95C49.8501 59.934 49.8361 59.927 49.8181 59.929C49.8001 59.931 49.7911 59.942 49.7911 59.962V60.928C49.7911 60.948 49.7841 60.965 49.7701 60.979C49.7561 60.993 49.7391 61 49.7191 61H49.2661C49.2461 61 49.2291 60.993 49.2151 60.979C49.2011 60.965 49.1941 60.948 49.1941 60.928V58.879C49.1941 58.859 49.2011 58.842 49.2151 58.828C49.2291 58.814 49.2461 58.807 49.2661 58.807H49.6861C49.7061 58.807 49.7271 58.813 49.7491 58.825C49.7711 58.837 49.7871 58.851 49.7971 58.867L50.3731 59.713C50.3851 59.729 50.3991 59.737 50.4151 59.737C50.4311 59.737 50.4441 59.729 50.4541 59.713L51.0301 58.867C51.0421 58.851 51.0591 58.837 51.0811 58.825C51.1031 58.813 51.1241 58.807 51.1441 58.807H51.5641C51.5841 58.807 51.6011 58.814 51.6151 58.828C51.6291 58.842 51.6361 58.859 51.6361 58.879ZM53.0789 58.873C53.0869 58.855 53.0999 58.84 53.1179 58.828C53.1379 58.814 53.1589 58.807 53.1809 58.807H53.6009C53.6209 58.807 53.6399 58.814 53.6579 58.828C53.6779 58.84 53.6919 58.855 53.6999 58.873L54.5759 60.913C54.5839 60.931 54.5819 60.95 54.5699 60.97C54.5599 60.99 54.5389 61 54.5069 61H53.9939C53.9719 61 53.9509 60.994 53.9309 60.982C53.9129 60.968 53.8989 60.952 53.8889 60.934L53.8079 60.754C53.7979 60.736 53.7829 60.721 53.7629 60.709C53.7449 60.695 53.7259 60.688 53.7059 60.688H53.0729C53.0509 60.688 53.0299 60.695 53.0099 60.709C52.9919 60.721 52.9789 60.736 52.9709 60.754L52.8869 60.934C52.8789 60.952 52.8649 60.968 52.8449 60.982C52.8269 60.994 52.8079 61 52.7879 61H52.2719C52.2619 61 52.2519 60.998 52.2419 60.994C52.2299 60.99 52.2209 60.984 52.2149 60.976C52.2069 60.968 52.2019 60.958 52.1999 60.946C52.1979 60.934 52.2009 60.92 52.2089 60.904L53.0789 58.873ZM53.2559 60.178H53.5229C53.5429 60.178 53.5569 60.172 53.5649 60.16C53.5749 60.146 53.5749 60.13 53.5649 60.112C53.5449 60.062 53.5209 60.004 53.4929 59.938C53.4649 59.87 53.4389 59.807 53.4149 59.749C53.4069 59.731 53.3979 59.722 53.3879 59.722C53.3779 59.722 53.3689 59.731 53.3609 59.749L53.2109 60.112C53.2029 60.13 53.2029 60.146 53.2109 60.16C53.2189 60.172 53.2339 60.178 53.2559 60.178ZM56.7111 60.52V60.928C56.7111 60.948 56.7041 60.965 56.6901 60.979C56.6761 60.993 56.6591 61 56.6391 61H55.1421C55.1201 61 55.1021 60.993 55.0881 60.979C55.0761 60.965 55.0701 60.948 55.0701 60.928V58.876C55.0701 58.856 55.0761 58.839 55.0881 58.825C55.1021 58.811 55.1201 58.804 55.1421 58.804H55.5921C55.6121 58.804 55.6291 58.811 55.6431 58.825C55.6571 58.839 55.6641 58.856 55.6641 58.876V60.376C55.6641 60.396 55.6701 60.413 55.6821 60.427C55.6961 60.441 55.7141 60.448 55.7361 60.448H56.6391C56.6591 60.448 56.6761 60.455 56.6901 60.469C56.7041 60.483 56.7111 60.5 56.7111 60.52ZM60.3022 60.52V60.928C60.3022 60.948 60.2952 60.965 60.2812 60.979C60.2672 60.993 60.2502 61 60.2302 61H58.7332C58.7112 61 58.6932 60.993 58.6792 60.979C58.6672 60.965 58.6612 60.948 58.6612 60.928V58.876C58.6612 58.856 58.6672 58.839 58.6792 58.825C58.6932 58.811 58.7112 58.804 58.7332 58.804H59.1832C59.2032 58.804 59.2202 58.811 59.2342 58.825C59.2482 58.839 59.2552 58.856 59.2552 58.876V60.376C59.2552 60.396 59.2612 60.413 59.2732 60.427C59.2872 60.441 59.3052 60.448 59.3272 60.448H60.2302C60.2502 60.448 60.2672 60.455 60.2812 60.469C60.2952 60.483 60.3022 60.5 60.3022 60.52ZM61.4189 61H60.9659C60.9439 61 60.9259 60.993 60.9119 60.979C60.8999 60.965 60.8939 60.948 60.8939 60.928V58.879C60.8939 58.859 60.8999 58.842 60.9119 58.828C60.9259 58.814 60.9439 58.807 60.9659 58.807H61.4189C61.4389 58.807 61.4559 58.814 61.4699 58.828C61.4839 58.842 61.4909 58.859 61.4909 58.879V60.928C61.4909 60.948 61.4839 60.965 61.4699 60.979C61.4559 60.993 61.4389 61 61.4189 61ZM63.7524 59.869C63.7844 59.887 63.8164 59.909 63.8484 59.935C63.8804 59.961 63.9094 59.993 63.9354 60.031C63.9634 60.069 63.9854 60.113 64.0014 60.163C64.0194 60.213 64.0284 60.27 64.0284 60.334C64.0284 60.464 64.0074 60.572 63.9654 60.658C63.9254 60.742 63.8704 60.81 63.8004 60.862C63.7304 60.912 63.6494 60.948 63.5574 60.97C63.4674 60.99 63.3724 61 63.2724 61H62.3214C62.3014 61 62.2844 60.993 62.2704 60.979C62.2564 60.965 62.2494 60.948 62.2494 60.928V58.876C62.2494 58.856 62.2564 58.839 62.2704 58.825C62.2844 58.811 62.3014 58.804 62.3214 58.804H63.2274C63.3234 58.804 63.4154 58.815 63.5034 58.837C63.5914 58.857 63.6684 58.891 63.7344 58.939C63.8024 58.987 63.8564 59.05 63.8964 59.128C63.9384 59.204 63.9594 59.298 63.9594 59.41C63.9594 59.5 63.9364 59.578 63.8904 59.644C63.8464 59.71 63.7984 59.762 63.7464 59.8C63.7104 59.826 63.7124 59.849 63.7524 59.869ZM62.9154 59.638H63.1944C63.2344 59.638 63.2664 59.623 63.2904 59.593C63.3144 59.561 63.3264 59.526 63.3264 59.488C63.3264 59.452 63.3114 59.421 63.2814 59.395C63.2534 59.369 63.2264 59.356 63.2004 59.356H62.9154C62.8954 59.356 62.8784 59.363 62.8644 59.377C62.8504 59.391 62.8434 59.408 62.8434 59.428V59.566C62.8434 59.586 62.8504 59.603 62.8644 59.617C62.8784 59.631 62.8954 59.638 62.9154 59.638ZM63.2304 60.133H62.9154C62.8954 60.133 62.8784 60.14 62.8644 60.154C62.8504 60.168 62.8434 60.185 62.8434 60.205V60.376C62.8434 60.396 62.8504 60.413 62.8644 60.427C62.8784 60.441 62.8954 60.448 62.9154 60.448H63.2514C63.2874 60.448 63.3214 60.433 63.3534 60.403C63.3854 60.373 63.4014 60.338 63.4014 60.298C63.4014 60.262 63.3854 60.226 63.3534 60.19C63.3234 60.152 63.2824 60.133 63.2304 60.133ZM65.2349 61H64.7879C64.7679 61 64.7509 60.993 64.7369 60.979C64.7229 60.965 64.7159 60.948 64.7159 60.928V58.876C64.7159 58.856 64.7229 58.839 64.7369 58.825C64.7509 58.811 64.7679 58.804 64.7879 58.804H65.7209C65.8369 58.804 65.9439 58.824 66.0419 58.864C66.1399 58.902 66.2229 58.956 66.2909 59.026C66.3609 59.096 66.4149 59.179 66.4529 59.275C66.4929 59.371 66.5129 59.477 66.5129 59.593C66.5129 59.657 66.5049 59.721 66.4889 59.785C66.4749 59.847 66.4539 59.906 66.4259 59.962C66.3979 60.018 66.3649 60.069 66.3269 60.115C66.2889 60.159 66.2459 60.196 66.1979 60.226C66.1819 60.238 66.1709 60.253 66.1649 60.271C66.1609 60.287 66.1649 60.303 66.1769 60.319C66.2529 60.419 66.3329 60.522 66.4169 60.628C66.5009 60.734 66.5759 60.831 66.6419 60.919C66.6539 60.935 66.6569 60.953 66.6509 60.973C66.6449 60.991 66.6319 61 66.6119 61H66.0539C66.0339 61 66.0119 60.995 65.9879 60.985C65.9659 60.973 65.9489 60.959 65.9369 60.943C65.8729 60.859 65.8089 60.774 65.7449 60.688C65.6829 60.602 65.6209 60.515 65.5589 60.427C65.5469 60.411 65.5299 60.398 65.5079 60.388C65.4859 60.376 65.4649 60.37 65.4449 60.37H65.3789C65.3589 60.37 65.3419 60.377 65.3279 60.391C65.3139 60.405 65.3069 60.422 65.3069 60.442V60.928C65.3069 60.948 65.2999 60.965 65.2859 60.979C65.2719 60.993 65.2549 61 65.2349 61ZM65.3789 59.818H65.6969C65.7209 59.818 65.7459 59.814 65.7719 59.806C65.7979 59.796 65.8219 59.782 65.8439 59.764C65.8659 59.744 65.8839 59.72 65.8979 59.692C65.9119 59.664 65.9189 59.631 65.9189 59.593C65.9189 59.573 65.9149 59.55 65.9069 59.524C65.9009 59.496 65.8889 59.47 65.8709 59.446C65.8549 59.42 65.8319 59.399 65.8019 59.383C65.7739 59.365 65.7389 59.356 65.6969 59.356H65.3789C65.3589 59.356 65.3419 59.363 65.3279 59.377C65.3139 59.391 65.3069 59.408 65.3069 59.428V59.746C65.3069 59.766 65.3139 59.783 65.3279 59.797C65.3419 59.811 65.3589 59.818 65.3789 59.818ZM67.9241 58.873C67.9321 58.855 67.9451 58.84 67.9631 58.828C67.9831 58.814 68.0041 58.807 68.0261 58.807H68.4461C68.4661 58.807 68.4851 58.814 68.5031 58.828C68.5231 58.84 68.5371 58.855 68.5451 58.873L69.4211 60.913C69.4291 60.931 69.4271 60.95 69.4151 60.97C69.4051 60.99 69.3841 61 69.3521 61H68.8391C68.8171 61 68.7961 60.994 68.7761 60.982C68.7581 60.968 68.7441 60.952 68.7341 60.934L68.6531 60.754C68.6431 60.736 68.6281 60.721 68.6081 60.709C68.5901 60.695 68.5711 60.688 68.5511 60.688H67.9181C67.8961 60.688 67.8751 60.695 67.8551 60.709C67.8371 60.721 67.8241 60.736 67.8161 60.754L67.7321 60.934C67.7241 60.952 67.7101 60.968 67.6901 60.982C67.6721 60.994 67.6531 61 67.6331 61H67.1171C67.1071 61 67.0971 60.998 67.0871 60.994C67.0751 60.99 67.0661 60.984 67.0601 60.976C67.0521 60.968 67.0471 60.958 67.0451 60.946C67.0431 60.934 67.0461 60.92 67.0541 60.904L67.9241 58.873ZM68.1011 60.178H68.3681C68.3881 60.178 68.4021 60.172 68.4101 60.16C68.4201 60.146 68.4201 60.13 68.4101 60.112C68.3901 60.062 68.3661 60.004 68.3381 59.938C68.3101 59.87 68.2841 59.807 68.2601 59.749C68.2521 59.731 68.2431 59.722 68.2331 59.722C68.2231 59.722 68.2141 59.731 68.2061 59.749L68.0561 60.112C68.0481 60.13 68.0481 60.146 68.0561 60.16C68.0641 60.172 68.0791 60.178 68.1011 60.178ZM70.3963 61H69.9493C69.9293 61 69.9123 60.993 69.8983 60.979C69.8843 60.965 69.8773 60.948 69.8773 60.928V58.876C69.8773 58.856 69.8843 58.839 69.8983 58.825C69.9123 58.811 69.9293 58.804 69.9493 58.804H70.8823C70.9983 58.804 71.1053 58.824 71.2033 58.864C71.3013 58.902 71.3843 58.956 71.4523 59.026C71.5223 59.096 71.5763 59.179 71.6143 59.275C71.6543 59.371 71.6743 59.477 71.6743 59.593C71.6743 59.657 71.6663 59.721 71.6503 59.785C71.6363 59.847 71.6153 59.906 71.5873 59.962C71.5593 60.018 71.5263 60.069 71.4883 60.115C71.4503 60.159 71.4073 60.196 71.3593 60.226C71.3433 60.238 71.3323 60.253 71.3263 60.271C71.3223 60.287 71.3263 60.303 71.3383 60.319C71.4143 60.419 71.4943 60.522 71.5783 60.628C71.6623 60.734 71.7373 60.831 71.8033 60.919C71.8153 60.935 71.8183 60.953 71.8123 60.973C71.8063 60.991 71.7933 61 71.7733 61H71.2153C71.1953 61 71.1733 60.995 71.1493 60.985C71.1273 60.973 71.1103 60.959 71.0983 60.943C71.0343 60.859 70.9703 60.774 70.9063 60.688C70.8443 60.602 70.7823 60.515 70.7203 60.427C70.7083 60.411 70.6913 60.398 70.6693 60.388C70.6473 60.376 70.6263 60.37 70.6063 60.37H70.5403C70.5203 60.37 70.5033 60.377 70.4893 60.391C70.4753 60.405 70.4683 60.422 70.4683 60.442V60.928C70.4683 60.948 70.4613 60.965 70.4473 60.979C70.4333 60.993 70.4163 61 70.3963 61ZM70.5403 59.818H70.8583C70.8823 59.818 70.9073 59.814 70.9333 59.806C70.9593 59.796 70.9833 59.782 71.0053 59.764C71.0273 59.744 71.0453 59.72 71.0593 59.692C71.0733 59.664 71.0803 59.631 71.0803 59.593C71.0803 59.573 71.0763 59.55 71.0683 59.524C71.0623 59.496 71.0503 59.47 71.0323 59.446C71.0163 59.42 70.9933 59.399 70.9633 59.383C70.9353 59.365 70.9003 59.356 70.8583 59.356H70.5403C70.5203 59.356 70.5033 59.363 70.4893 59.377C70.4753 59.391 70.4683 59.408 70.4683 59.428V59.746C70.4683 59.766 70.4753 59.783 70.4893 59.797C70.5033 59.811 70.5203 59.818 70.5403 59.818ZM74.1763 58.891L73.4263 60.106C73.4163 60.124 73.4073 60.146 73.3993 60.172C73.3913 60.198 73.3873 60.221 73.3873 60.241V60.928C73.3873 60.948 73.3803 60.965 73.3663 60.979C73.3523 60.993 73.3353 61 73.3153 61H72.8623C72.8423 61 72.8253 60.993 72.8113 60.979C72.7973 60.965 72.7903 60.948 72.7903 60.928V60.244C72.7903 60.224 72.7863 60.201 72.7783 60.175C72.7723 60.147 72.7643 60.125 72.7543 60.109C72.6343 59.903 72.5113 59.701 72.3853 59.503C72.2613 59.305 72.1373 59.101 72.0133 58.891C72.0033 58.873 72.0013 58.855 72.0073 58.837C72.0133 58.817 72.0263 58.807 72.0463 58.807H72.5803C72.6003 58.807 72.6203 58.813 72.6403 58.825C72.6623 58.837 72.6783 58.852 72.6883 58.87L73.0573 59.512C73.0673 59.528 73.0793 59.536 73.0933 59.536C73.1073 59.536 73.1193 59.528 73.1293 59.512L73.4953 58.87C73.5053 58.852 73.5203 58.837 73.5403 58.825C73.5623 58.813 73.5833 58.807 73.6033 58.807H74.1433C74.1633 58.807 74.1773 58.814 74.1853 58.828C74.1953 58.842 74.1923 58.863 74.1763 58.891Z" fill="black"/>
</svg>
